<?xml version="1.0" encoding="UTF-8"?>
<svg width="600mm" height="600mm" version="1.1" viewBox="0 0 600 600" xmlns="http://www.w3.org/2000/svg" xmlns:cc="http://creativecommons.org/ns#" xmlns:dc="http://purl.org/dc/elements/1.1/" xmlns:rdf="http://www.w3.org/1999/02/22-rdf-syntax-ns#">
<metadata>
<rdf:RDF>
<cc:Work rdf:about="">
<dc:format>image/svg+xml</dc:format>
<dc:type rdf:resource="http://purl.org/dc/dcmitype/StillImage"/>
<dc:title/>
</cc:Work>
</rdf:RDF>
</metadata>
<g transform="translate(0,303)" stroke="#000">
<path d="m219.15-45.768c1.1541 14.369 1.658 28.403-9.1342 36.652-73.618-18.362-92.961 13.665-98.947 36.652-10.914 45.218-28.48 92.113-20.551 128.67 58.558 39.988 93.464 25.705 147.99 33.446 4.0453 7.0473 35.541 6.3092 46.293-2.5206l14.269 4.1664 4.3902 6.8768 2.8602 8.5863c2.8061 8.623 7.9442 7.0214 9.3179 0.22788l-6.6734-20.37-22.073-10.138 22.073 10.138 6.6734 20.37c10.517 16.526 13.403 4.0872 12.039-4.4668l-7.2964-19.802-19.79-10.137 19.79 10.137 7.2964 19.802c6.411 14.364 14.372 21.084 13.024-0.0457l-4.3363-18.196-23.595-17.156 23.595 17.156 8.104 25.088c2.0527 6.7666 8.98 12.861 10.824-1.5676l-6.7497-30.539-25.117-12.478c-3.2523-3.7203-60.774-11.504-69.379-6.4198-25.46-1.9089-9.37 0.1624-51.641-8.3964-12.075-6.2534-35.022-14.369-60.13-18.716 9.0806-14.743 6.7521-42.297 6.8504-67.844 3.645 24.753 5.1405 51.742 15.984 70.964" fill="none" stroke-linejoin="round" stroke-width="3.5976"/>
<g transform="matrix(.18917 0 0 .18405 75.424 -299.07)">
<g>
<path d="m370 1638s440-458 1022-324c0 0-70-1194-86-1192 0 0-94 130-878 204 0 0 142.15 630.55-58 1312z" fill="#fff" stroke-linejoin="round" stroke-width="18.8"/>
<path d="m988.42 969.23c-160.87-15.276-240.11-6.3878-290.88 92.946" fill="none" stroke-linecap="round" stroke-width="19.6"/>
</g>
<ellipse transform="matrix(.99978 .020947 -.02734 .99963 0 0)" cx="1066.2" cy="488.04" rx="22.364" ry="29.681" stroke-linecap="round" stroke-linejoin="round" stroke-width="18.709"/>
<ellipse transform="rotate(11.322)" cx="834.19" cy="384.79" rx="22.145" ry="29.924" stroke-linecap="round" stroke-linejoin="round" stroke-width="20.564"/>
<path d="m615.5 525.5s75-128.5 176-42.5" fill="none" stroke-linecap="round" stroke-width="18"/>
<path d="m990.5 458.5s35.5-57 174.5-26.5" fill="none" stroke-linecap="round" stroke-width="18"/>
</g>
<path d="m149.08 218.14 129.56 41.903 195.4-21.949 29.735-179.59-199.65-1.9954-25.487 181.58-129.56-41.903z" fill="#ececec" stroke-linejoin="round" stroke-width="2.6498"/>
<path d="m278.64 260.05c-2.9399-14.57 0.67271-19.015 0-21.949v0l197.97-16.677" fill="none" stroke-linejoin="round" stroke-width=".9478"/>
<path d="m149.08 196.19 28.074-10.834" fill="none" stroke-linejoin="round" stroke-width="1.8936"/>
<path d="m272.39-60.542c5.0896 18.665 8.4747 46.504 17.299 45.083 25.463-12.1 50.957-9.4161 66.053-10.895 36.12 2.0474 44.341 50.257 47.422 62.206l5.3771 20.507" fill="none" stroke-width="3.1899"/>
<path d="m354.92 55.901c-0.45533-2.9779-1.1057-5.4562-0.0947-12.185" fill="none" stroke-width="2.5784"/>
</g>
</svg>
