<?xml version="1.0" encoding="UTF-8"?>
<svg width="600mm" height="600mm" version="1.1" viewBox="0 0 600 600" xmlns="http://www.w3.org/2000/svg" xmlns:cc="http://creativecommons.org/ns#" xmlns:dc="http://purl.org/dc/elements/1.1/" xmlns:rdf="http://www.w3.org/1999/02/22-rdf-syntax-ns#">
<metadata>
<rdf:RDF>
<cc:Work rdf:about="">
<dc:format>image/svg+xml</dc:format>
<dc:type rdf:resource="http://purl.org/dc/dcmitype/StillImage"/>
<dc:title/>
</cc:Work>
</rdf:RDF>
</metadata>
<g transform="translate(0,303)">
<path d="m219.15-45.768c1.1541 14.369 1.658 28.403-9.1342 36.652-73.618-18.362-92.961 13.665-98.947 36.652-10.914 45.218-28.48 92.113-20.551 128.67 58.558 39.988 93.464 25.705 147.99 33.446 4.0453 7.0473 35.541 6.3092 46.293-2.5206l14.269 4.1664 4.3902 6.8768 2.8602 8.5863c2.8061 8.623 7.9442 7.0214 9.3179 0.22788l-6.6734-20.37-22.073-10.138 22.073 10.138 6.6734 20.37c10.517 16.526 13.403 4.0872 12.039-4.4668l-7.2964-19.802-19.79-10.137 19.79 10.137 7.2964 19.802c6.411 14.364 14.372 21.084 13.024-0.0457l-4.3363-18.196-23.595-17.156 23.595 17.156 8.104 25.088c2.0527 6.7666 8.98 12.861 10.824-1.5676l-6.7497-30.539-25.117-12.478c-3.2523-3.7203-60.774-11.504-69.379-6.4198-25.46-1.9089-9.37 0.1624-51.641-8.3964-12.075-6.2534-35.022-14.369-60.13-18.716 9.0806-14.743 6.7521-42.297 6.8504-67.844 3.645 24.753 5.1405 51.742 15.984 70.964" fill="none" stroke="#000" stroke-linejoin="round" stroke-width="3.5976"/>
<g transform="matrix(.18917 0 0 .18405 75.424 -299.07)" fill="#f8f5f5" stroke="#000">
<g>
<path d="m370 1638s440-458 1022-324c0 0-70-1194-86-1192 0 0-94 130-878 204 0 0 142.15 630.55-58 1312z" stroke-linejoin="round" stroke-width="18.8"/>
<path d="m988.42 969.23c-160.87-15.276-240.11-6.3878-290.88 92.946" stroke-linecap="round" stroke-width="19.6"/>
</g>
<ellipse transform="matrix(.99978 .020947 -.02734 .99963 0 0)" cx="1066.2" cy="488.04" rx="22.364" ry="29.681" stroke-linecap="round" stroke-linejoin="round" stroke-width="18.709"/>
<ellipse transform="rotate(11.322)" cx="834.19" cy="384.79" rx="22.145" ry="29.924" stroke-linecap="round" stroke-linejoin="round" stroke-width="20.564"/>
<path d="m615.5 525.5s75-128.5 176-42.5" stroke-linecap="round" stroke-width="18"/>
<path d="m990.5 458.5s35.5-57 174.5-26.5" stroke-linecap="round" stroke-width="18"/>
</g>
<path d="m149.08 218.14 129.56 41.903 195.4-21.949 29.735-179.59-199.65-1.9954-25.487 181.58-129.56-41.903z" fill="#ececec" stroke="#000" stroke-linejoin="round" stroke-width="2.6498"/>
<path d="m278.64 260.05c-2.9399-14.57 0.67271-19.015 0-21.949v0l197.97-16.677" fill="none" stroke="#000" stroke-linejoin="round" stroke-width=".9478"/>
<path d="m149.08 196.19 28.074-10.834" fill="none" stroke="#000" stroke-linejoin="round" stroke-width="1.8936"/>
<path d="m272.39-60.542c5.0896 18.665 8.4747 46.504 17.299 45.083 25.463-12.1 50.957-9.4161 66.053-10.895 36.12 2.0474 44.341 50.257 47.422 62.206l5.3771 20.507" fill="none" stroke="#000" stroke-width="3.1899"/>
<path d="m354.92 55.901c-0.45533-2.9779-1.1057-5.4562-0.0947-12.185" fill="none" stroke="#000" stroke-width="2.5784"/>
<path transform="matrix(.26458 0 0 .26458 0 -303)" d="m915.65 1861.2c-19.305-9.8423-61.683-14.919-151.38-18.134-199.12-7.1366-268.08-24.012-384.64-94.118l-31.085-18.697-2.807-26.211c-4.4111-41.19 0.77504-114.75 12.131-172.08 15.854-80.027 73.813-295.76 87.124-324.29 6.4886-13.909 21.026-35.046 32.305-46.972 19.493-20.611 66.65-50.413 71.731-45.332 1.3106 1.3106 0.27334 9.4241-2.305 18.03-10.266 34.264-1.9871 37.796 26.8 11.434 10.461-9.5796 27.788-24.453 38.506-33.052l19.486-15.634 49.204 4.6566c27.062 2.5611 64.146 7.8068 82.407 11.657l33.203 7.0004 10.627-9.92c22.291-20.808 30.162-46.096 31.386-100.83l0.67761-30.305 51.411-17.285c56.84-19.11 127.95-35.405 132.62-30.389 1.6517 1.775 7.9819 25.047 14.067 51.715 17.846 78.214 33.011 111.12 51.212 111.12 4.5701 0 21.229-4.6604 37.02-10.356 44.58-16.081 79.62-22.036 155.11-26.363 50.869-2.9153 74.346-2.7468 86.873 0.6233 38.294 10.302 64.732 30.38 89.025 67.609 25.558 39.167 37.121 69.381 59.313 154.99l19.737 76.138-73.435-0.036c-40.389-0.02-82.981-1.1817-94.648-2.5831l-21.213-2.5481v-21.66c0-16.559-1.4272-21.659-6.0609-21.659-4.6528 0-6.0609 5.163-6.0609 22.223v22.223h-189.75l-1.9495 9.0914c-1.0723 5.0003-13.236 90.468-27.03 189.93l-25.08 180.84-54.87-0.5839c-30.178-0.3212-71.843-0.3107-92.589 0.024-54.099 0.8687-144.79-18.004-210.78-43.864-27.779-10.886-61.429-22.802-74.777-26.479l-24.269-6.6853-11.366-26.321c-16.604-38.451-25.777-78.233-38.759-168.09-6.3592-44.016-12.594-81.061-13.855-82.322-1.2607-1.2607-4.9339-1.2785-8.1625-0.04-4.8564 1.8636-6.1352 19.57-7.4041 102.52-1.4844 97.037-1.8931 101.3-12.668 132.21-6.124 17.568-9.6892 33.139-7.9224 34.604 1.7667 1.4644 22.304 6.8066 45.639 11.872 50.856 11.039 121.46 33.239 157.58 49.552 14.594 6.5899 55.887 18.251 92.934 26.245 65.845 14.208 67.795 14.38 157.58 13.954 50.003-0.2376 93.151 1.0063 95.886 2.7638 3.803 2.444 3.9921 8.8523 0.8042 27.249-2.2925 13.23-5.1751 33.084-6.4057 44.121-1.2978 11.64-5.0294 22.225-8.8854 25.206-27.204 21.027-120.99 29.184-152.25 13.243z" fill="#f8f5f5"/>
<path transform="matrix(.26458 0 0 .26458 0 -303)" d="m820.84 1962.8c-121.12-39.374-223.85-73.059-228.29-74.856-6.5065-2.6305-0.99505-6.0187 28.284-17.388l36.365-14.121 78.792 2.6773c109.3 3.7141 151.39 8.4053 173.6 19.35 15.873 7.8209 24.27 8.9576 62.771 8.498 32.781-0.3913 51.294-2.7338 70.537-8.9252 14.35-4.6171 26.522-7.9627 27.05-7.4348 0.9017 0.9018-15.936 122.67-20.915 151.25-1.2582 7.2226-3.5689 12.999-5.135 12.836-1.566-0.1625-101.94-32.51-223.06-71.884z" fill="#f8f5f5"/>
<path transform="matrix(.26458 0 0 .26458 0 -303)" d="m811.74 403.58c-4.2825-2.3121-5.4198-12.254-2.1378-18.687 5.3513-10.489 14.396-7.8261 14.396 4.2389 0 9.3664-6.8083 17.391-12.258 14.448z"/>
<path transform="matrix(.26458 0 0 .26458 0 -303)" d="m811.61 403.15c-3.0097-1.7495-4.2688-9.6948-2.5292-15.961 1.0603-3.8193 5.4982-8.2304 8.2805-8.2304 2.2822 0 4.7153 2.1301 5.5412 4.8513 0.27327 0.90035 0.4877 3.5487 0.47653 5.8853-0.025 5.2342-2.3595 10.341-5.785 12.656-2.6178 1.769-3.9973 1.953-5.9839 0.79819z" stroke="#000" stroke-width="3.36"/>
<path transform="matrix(.26458 0 0 .26458 0 -303)" d="m1033 381.46c-2.7694-2.5666-3.9967-6.0715-3.9967-11.414 0-10.572 7.4367-17.45 13.146-12.159 3.9372 3.6488 5.4235 10.398 3.6405 16.532-2.2919 7.8839-8.3073 11.195-12.79 7.0409z" stroke="#000" stroke-width="1.8482"/>
<path transform="matrix(.26458 0 0 .26458 0 -303)" d="m813.4 1961.7c-127.49-41.283-231.81-75.572-231.83-76.198-0.0155-0.626 17.17-7.7176 38.189-15.759l38.217-14.621 82.496 3.1557c117.69 4.5019 151.02 7.7692 163.13 15.992 28.176 19.121 110.66 17.106 156.37-3.8207 6.1025-2.7938 11.376-4.7993 11.718-4.4567 0.5498 0.5497-19.576 147.76-22.503 164.6-0.6277 3.6113-1.782 6.4776-2.565 6.3696s-105.73-33.973-233.23-75.256z" fill="#a0a0a0"/>
</g>
</svg>
