<?xml version="1.0" encoding="UTF-8"?>
<svg width="210mm" height="297mm" version="1.1" viewBox="0 0 210 297" xmlns="http://www.w3.org/2000/svg" xmlns:cc="http://creativecommons.org/ns#" xmlns:dc="http://purl.org/dc/elements/1.1/" xmlns:rdf="http://www.w3.org/1999/02/22-rdf-syntax-ns#">
<metadata>
<rdf:RDF>
<cc:Work rdf:about="">
<dc:format>image/svg+xml</dc:format>
<dc:type rdf:resource="http://purl.org/dc/dcmitype/StillImage"/>
<dc:title/>
</cc:Work>
</rdf:RDF>
</metadata>
<g>
<path d="m196.18 116.86l-30.469 19.778-20.847-55.592 51.316 36.349v174.79l-183.88-0.53454v-210.07l133.63-0.53454-1.0691-0.53454" fill="none" stroke="#000" stroke-width=".565"/>
<path d="m137.72 144.15a12.212 15.715 0 0 1 -4.363 16.266 12.212 15.715 0 0 1 -13.329 1.3699 12.212 15.715 0 0 1 -6.3138 -15.169l12.165 1.3751z" fill="none" stroke="#000" stroke-width=".8"/>
<path d="m61.017 145.21a12.212 15.715 0 0 1 -4.363 16.266 12.212 15.715 0 0 1 -13.329 1.3699 12.212 15.715 0 0 1 -6.3138 -15.169l12.165 1.3751z" fill="none" stroke="#000" stroke-width=".8"/>
<path d="m31.538 252.63c51.513-79.775 93.192-36.139 128.29-3.7418" fill="none" stroke="#000" stroke-width=".8"/>
<path transform="scale(.26458)" d="m282.54 1101.2-233.85-0.5221v-789.43l156.07-1.388c85.838-0.76338 197.86-1.1007 248.93-0.7495l92.866 0.63846 38.973 103.89c21.435 57.14 39.325 104.24 39.756 104.67 0.43068 0.43068 25.198-15.017 55.039-34.327 29.841-19.311 55.393-35.784 56.781-36.608 2.0161-1.1961 2.5254 64.733 2.5254 326.92v328.42l-111.62-0.4965c-61.392-0.2731-216.85-0.7315-345.47-1.0186zm-147.4-165.16c30.319-44.776 74.22-91.898 105.9-113.67 20.677-14.211 45.342-25.775 66.146-31.014 24.546-6.1804 64.216-4.7502 88.994 3.2085 50.634 16.264 96.988 47.759 173.59 117.95 18.25 16.722 34.113 29.828 35.25 29.125 2.9594-1.829-55.477-55.961-93.728-86.823-120.51-97.234-218.1-97.122-316.34 0.36356-30.841 30.604-79.79 94.836-76.422 100.28 1.6495 2.6689 1.6608 2.6556 16.609-19.421zm68.661-315.59c17.795-8.3837 32.247-37.134 30.324-60.322-0.5004-6.0342-1.5517-11.613-2.3363-12.398-0.78456-0.78456-11.62 1.9041-24.078 5.9748-24.235 7.9187-24.107 7.9135-62.552 2.5225l-7.5762-1.0624v9.7587c0 27.238 17.484 53.81 38.88 59.087 8.0122 1.9762 18.479 0.6128 27.338-3.5609zm292.23-5.2285c10.375-5.7392 20.445-19.052 24.344-32.18 3.6316-12.229 4.2139-39.95 0.83927-39.95-1.2336 0-12.371 3.1412-24.749 6.9805l-22.506 6.9805-22.223-2.7879c-12.794-1.605-22.998-2.0345-24.05-1.0122-2.8616 2.7819 2.3194 29.359 7.8516 40.276 5.8879 11.619 18.798 23.217 29.004 26.055 9.8183 2.7305 21.626 1.0951 31.489-4.3611z" fill="#f9f9f9" stroke="#00000e" stroke-width="6.1086"/>
<path transform="scale(.26458)" d="m590.41 414.51c-20.242-54.031-36.386-98.656-35.876-99.167 0.85023-0.85023 172.82 119.95 178.48 125.38 1.9136 1.8337-8.7868 9.6281-47.477 34.584-27.471 17.719-51.832 33.393-54.136 34.831-4.0663 2.5386-5.2596-0.2452-40.992-95.624z" fill="#f9f9f9" stroke="#00000e" stroke-width="6.1086"/>
<path transform="scale(.26458)" d="m169.59 615.74c-14.285-7.5465-23.7-23.543-27.204-46.221l-1.3735-8.8872 9.9028 1.2582c32.707 4.1555 35.331 4.0382 55.569-2.4844 10.671-3.4392 19.99-6.2532 20.708-6.2532 2.0678 0 1.4965 22.467-0.77971 30.663-3.1626 11.387-14.186 26.32-23.168 31.384-10.051 5.6671-23.54 5.8836-33.654 0.54021z" fill="#f9f9f9" stroke="#00000e" stroke-width="6.1086"/>
<path transform="scale(.26458)" d="m461.84 612.97c-14.859-6.5104-26.691-25.071-28.76-45.117l-1.1623-11.262 9.9102 1.2344c33.253 4.142 33.507 4.1305 53.998-2.4333 10.78-3.4532 20.621-6.2785 21.868-6.2785 3.7675 0 0.81939 26.04-4.2868 37.864-4.7247 10.941-16.659 23.5-25.54 26.876-7.0439 2.6781-18.81 2.2787-26.027-0.88355z" fill="#f9f9f9" stroke="#00000e" stroke-width="6.1086"/>
</g>
</svg>
