<?xml version="1.0" encoding="UTF-8"?>
<svg width="300mm" height="300mm" version="1.1" viewBox="0 0 300 300" xmlns="http://www.w3.org/2000/svg" xmlns:cc="http://creativecommons.org/ns#" xmlns:dc="http://purl.org/dc/elements/1.1/" xmlns:rdf="http://www.w3.org/1999/02/22-rdf-syntax-ns#">
<metadata>
<rdf:RDF>
<cc:Work rdf:about="">
<dc:format>image/svg+xml</dc:format>
<dc:type rdf:resource="http://purl.org/dc/dcmitype/StillImage"/>
<dc:title/>
</cc:Work>
</rdf:RDF>
</metadata>
<g transform="translate(0,3)">
<rect x="-71.772" y="4.6685" width="73.766" height="178" ry="0" fill="#172c35" fill-opacity=".95686" stroke="#172c35" stroke-width=".8"/>
<path d="m1.9943 182.67 71.628-49.712" fill="#172c35" fill-opacity=".95686" stroke="#172c35" stroke-width=".765"/>
<rect x="-67.487" y="7.2568" width="65.061" height="9.6404" fill="#47727f" fill-opacity=".81569" stroke="#294650" stroke-opacity=".81569" stroke-width="1.336"/>
<rect x="-45.401" y="9.2395" width="37.284" height="5.5244" fill="#47727f" fill-opacity=".81569" stroke="#294650" stroke-opacity=".81569" stroke-width=".76562"/>
<path d="m-52.781 9.6053a2 2 0 0 1 1.9414 2.0414 2 2 0 0 1 -2.026 1.9575 2 2 0 0 1 -1.9736 -2.0104 2 2 0 0 1 1.9946 -1.9895" fill="#00af6c" fill-opacity=".81569" stroke="#00af6c" stroke-opacity=".81569" stroke-width="1.527"/>
<path d="m-62.041 9.5108a2 2 0 0 1 1.9414 2.0414 2 2 0 0 1 -2.026 1.9575 2 2 0 0 1 -1.9736 -2.0104 2 2 0 0 1 1.9946 -1.9895" fill="#df1442" fill-opacity=".81569" stroke="#df1442" stroke-opacity=".81569" stroke-width="1.527"/>
<rect x="-67.487" y="18.202" width="65.061" height="9.6404" fill="#47727f" fill-opacity=".81569" stroke="#294650" stroke-opacity=".81569" stroke-width="1.336"/>
<rect x="-45.401" y="20.184" width="37.284" height="5.5244" fill="#47727f" fill-opacity=".81569" stroke="#294650" stroke-opacity=".81569" stroke-width=".76562"/>
<path d="m-52.781 20.55a2 2 0 0 1 1.9414 2.0414 2 2 0 0 1 -2.026 1.9575 2 2 0 0 1 -1.9736 -2.0104 2 2 0 0 1 1.9946 -1.9895" fill="#00af6c" fill-opacity=".81569" stroke="#00af6c" stroke-opacity=".81569" stroke-width="1.527"/>
<path d="m-62.041 20.456a2 2 0 0 1 1.9414 2.0414 2 2 0 0 1 -2.026 1.9575 2 2 0 0 1 -1.9736 -2.0104 2 2 0 0 1 1.9946 -1.9895" fill="#df1442" fill-opacity=".81569" stroke="#df1442" stroke-opacity=".81569" stroke-width="1.527"/>
<rect x="-67.487" y="159.43" width="65.061" height="9.6404" fill="#47727f" fill-opacity=".81569" stroke="#294650" stroke-opacity=".81569" stroke-width="1.336"/>
<rect x="-45.401" y="161.42" width="37.284" height="5.5244" fill="#47727f" fill-opacity=".81569" stroke="#294650" stroke-opacity=".81569" stroke-width=".76562"/>
<path d="m-52.781 161.78a2 2 0 0 1 1.9414 2.0414 2 2 0 0 1 -2.026 1.9576 2 2 0 0 1 -1.9736 -2.0104 2 2 0 0 1 1.9946 -1.9895" fill="#00af6c" fill-opacity=".81569" stroke="#00af6c" stroke-opacity=".81569" stroke-width="1.527"/>
<path d="m-62.041 161.69a2 2 0 0 1 1.9414 2.0414 2 2 0 0 1 -2.026 1.9575 2 2 0 0 1 -1.9736 -2.0104 2 2 0 0 1 1.9946 -1.9895" fill="#df1442" fill-opacity=".81569" stroke="#df1442" stroke-opacity=".81569" stroke-width="1.527"/>
<rect x="-67.487" y="169.88" width="65.061" height="9.6404" fill="#47727f" fill-opacity=".81569" stroke="#294650" stroke-opacity=".81569" stroke-width="1.336"/>
<rect x="-45.401" y="171.87" width="37.284" height="5.5244" fill="#47727f" fill-opacity=".81569" stroke="#294650" stroke-opacity=".81569" stroke-width=".76562"/>
<path d="m-52.781 172.23a2 2 0 0 1 1.9414 2.0414 2 2 0 0 1 -2.026 1.9575 2 2 0 0 1 -1.9736 -2.0104 2 2 0 0 1 1.9946 -1.9895" fill="#00af6c" fill-opacity=".81569" stroke="#00af6c" stroke-opacity=".81569" stroke-width="1.527"/>
<path d="m-62.041 172.14a2 2 0 0 1 1.9414 2.0414 2 2 0 0 1 -2.026 1.9575 2 2 0 0 1 -1.9736 -2.0104 2 2 0 0 1 1.9946 -1.9895" fill="#df1442" fill-opacity=".81569" stroke="#df1442" stroke-opacity=".81569" stroke-width="1.527"/>
<rect x="-67.487" y="149.29" width="65.061" height="9.6404" fill="#47727f" fill-opacity=".81569" stroke="#294650" stroke-opacity=".81569" stroke-width="1.336"/>
<rect x="-67.487" y="139.52" width="65.061" height="9.6404" fill="#47727f" fill-opacity=".81569" stroke="#294650" stroke-opacity=".81569" stroke-width="1.336"/>
<rect x="-45.332" y="141.51" width="37.284" height="5.5244" fill="#47727f" fill-opacity=".81569" stroke="#294650" stroke-opacity=".81569" stroke-width=".76562"/>
<path d="m-52.712 141.87a2 2 0 0 1 1.9414 2.0414 2 2 0 0 1 -2.026 1.9575 2 2 0 0 1 -1.9736 -2.0104 2 2 0 0 1 1.9946 -1.9895" fill="#00af6c" fill-opacity=".81569" stroke="#00af6c" stroke-opacity=".81569" stroke-width="1.527"/>
<path d="m-61.972 141.78a2 2 0 0 1 1.9414 2.0414 2 2 0 0 1 -2.026 1.9576 2 2 0 0 1 -1.9736 -2.0104 2 2 0 0 1 1.9946 -1.9895" fill="#df1442" fill-opacity=".81569" stroke="#df1442" stroke-opacity=".81569" stroke-width="1.527"/>
<rect x="-45.401" y="151.28" width="37.284" height="5.5244" fill="#47727f" fill-opacity=".81569" stroke="#294650" stroke-opacity=".81569" stroke-width=".76562"/>
<path d="m-52.781 151.64a2 2 0 0 1 1.9414 2.0414 2 2 0 0 1 -2.026 1.9575 2 2 0 0 1 -1.9736 -2.0104 2 2 0 0 1 1.9946 -1.9895" fill="#00af6c" fill-opacity=".81569" stroke="#00af6c" stroke-opacity=".81569" stroke-width="1.527"/>
<path d="m-62.041 151.55a2 2 0 0 1 1.9414 2.0414 2 2 0 0 1 -2.026 1.9575 2 2 0 0 1 -1.9736 -2.0104 2 2 0 0 1 1.9946 -1.9895" fill="#df1442" fill-opacity=".81569" stroke="#df1442" stroke-opacity=".81569" stroke-width="1.527"/>
<rect x="-67.487" y="28.507" width="65.061" height="9.6404" fill="#47727f" fill-opacity=".81569" stroke="#294650" stroke-opacity=".81569" stroke-width="1.336"/>
<rect x="-45.401" y="30.49" width="37.284" height="5.5244" fill="#47727f" fill-opacity=".81569" stroke="#294650" stroke-opacity=".81569" stroke-width=".76562"/>
<path d="m-52.781 30.855a2 2 0 0 1 1.9414 2.0414 2 2 0 0 1 -2.026 1.9575 2 2 0 0 1 -1.9736 -2.0104 2 2 0 0 1 1.9946 -1.9895" fill="#00af6c" fill-opacity=".81569" stroke="#00af6c" stroke-opacity=".81569" stroke-width="1.527"/>
<path d="m-62.041 30.761a2 2 0 0 1 1.9414 2.0414 2 2 0 0 1 -2.026 1.9575 2 2 0 0 1 -1.9736 -2.0104 2 2 0 0 1 1.9946 -1.9895" fill="#df1442" fill-opacity=".81569" stroke="#df1442" stroke-opacity=".81569" stroke-width="1.527"/>
<rect x="-67.487" y="119.01" width="65.061" height="9.6404" fill="#47727f" fill-opacity=".81569" stroke="#294650" stroke-opacity=".81569" stroke-width="1.336"/>
<rect x="-45.401" y="121" width="37.284" height="5.5244" fill="#47727f" fill-opacity=".81569" stroke="#294650" stroke-opacity=".81569" stroke-width=".76562"/>
<path d="m-52.781 121.36a2 2 0 0 1 1.9414 2.0414 2 2 0 0 1 -2.026 1.9575 2 2 0 0 1 -1.9736 -2.0104 2 2 0 0 1 1.9946 -1.9895" fill="#00af6c" fill-opacity=".81569" stroke="#00af6c" stroke-opacity=".81569" stroke-width="1.527"/>
<path d="m-62.041 121.27a2 2 0 0 1 1.9414 2.0414 2 2 0 0 1 -2.026 1.9575 2 2 0 0 1 -1.9736 -2.0104 2 2 0 0 1 1.9946 -1.9895" fill="#df1442" fill-opacity=".81569" stroke="#df1442" stroke-opacity=".81569" stroke-width="1.527"/>
<rect x="-67.487" y="108.77" width="65.061" height="9.6404" fill="#47727f" fill-opacity=".81569" stroke="#294650" stroke-opacity=".81569" stroke-width="1.336"/>
<rect x="-45.401" y="110.75" width="37.284" height="5.5244" fill="#47727f" fill-opacity=".81569" stroke="#294650" stroke-opacity=".81569" stroke-width=".76562"/>
<path d="m-52.781 111.12a2 2 0 0 1 1.9414 2.0414 2 2 0 0 1 -2.026 1.9575 2 2 0 0 1 -1.9736 -2.0104 2 2 0 0 1 1.9946 -1.9895" fill="#00af6c" fill-opacity=".81569" stroke="#00af6c" stroke-opacity=".81569" stroke-width="1.527"/>
<path d="m-62.041 111.02a2 2 0 0 1 1.9414 2.0414 2 2 0 0 1 -2.026 1.9575 2 2 0 0 1 -1.9736 -2.0104 2 2 0 0 1 1.9946 -1.9895" fill="#df1442" fill-opacity=".81569" stroke="#df1442" stroke-opacity=".81569" stroke-width="1.527"/>
<rect x="-67.487" y="88.643" width="65.061" height="9.6404" fill="#47727f" fill-opacity=".81569" stroke="#294650" stroke-opacity=".81569" stroke-width="1.336"/>
<rect x="-45.401" y="90.626" width="37.284" height="5.5244" fill="#47727f" fill-opacity=".81569" stroke="#294650" stroke-opacity=".81569" stroke-width=".76562"/>
<path d="m-52.781 90.991a2 2 0 0 1 1.9414 2.0414 2 2 0 0 1 -2.026 1.9575 2 2 0 0 1 -1.9736 -2.0104 2 2 0 0 1 1.9946 -1.9895" fill="#00af6c" fill-opacity=".81569" stroke="#00af6c" stroke-opacity=".81569" stroke-width="1.527"/>
<path d="m-62.041 90.897a2 2 0 0 1 1.9414 2.0414 2 2 0 0 1 -2.026 1.9575 2 2 0 0 1 -1.9736 -2.0104 2 2 0 0 1 1.9946 -1.9895" fill="#df1442" fill-opacity=".81569" stroke="#df1442" stroke-opacity=".81569" stroke-width="1.527"/>
<rect x="-67.487" y="49.188" width="65.061" height="9.6404" fill="#47727f" fill-opacity=".81569" stroke="#294650" stroke-opacity=".81569" stroke-width="1.336"/>
<rect x="-45.401" y="51.17" width="37.284" height="5.5244" fill="#47727f" fill-opacity=".81569" stroke="#294650" stroke-opacity=".81569" stroke-width=".76562"/>
<path d="m-52.781 51.536a2 2 0 0 1 1.9414 2.0414 2 2 0 0 1 -2.026 1.9575 2 2 0 0 1 -1.9736 -2.0104 2 2 0 0 1 1.9946 -1.9895" fill="#00af6c" fill-opacity=".81569" stroke="#00af6c" stroke-opacity=".81569" stroke-width="1.527"/>
<path d="m-62.041 51.442a2 2 0 0 1 1.9414 2.0414 2 2 0 0 1 -2.026 1.9575 2 2 0 0 1 -1.9736 -2.0104 2 2 0 0 1 1.9946 -1.9895" fill="#df1442" fill-opacity=".81569" stroke="#df1442" stroke-opacity=".81569" stroke-width="1.527"/>
<rect x="-67.487" y="129.29" width="65.061" height="9.6404" fill="#47727f" fill-opacity=".81569" stroke="#294650" stroke-opacity=".81569" stroke-width="1.336"/>
<rect x="-45.401" y="131.27" width="37.284" height="5.5244" fill="#47727f" fill-opacity=".81569" stroke="#294650" stroke-opacity=".81569" stroke-width=".76562"/>
<path d="m-52.781 131.64a2 2 0 0 1 1.9414 2.0414 2 2 0 0 1 -2.026 1.9576 2 2 0 0 1 -1.9736 -2.0104 2 2 0 0 1 1.9946 -1.9895" fill="#00af6c" fill-opacity=".81569" stroke="#00af6c" stroke-opacity=".81569" stroke-width="1.527"/>
<path d="m-62.041 131.54a2 2 0 0 1 1.9414 2.0414 2 2 0 0 1 -2.026 1.9575 2 2 0 0 1 -1.9736 -2.0104 2 2 0 0 1 1.9946 -1.9895" fill="#df1442" fill-opacity=".81569" stroke="#df1442" stroke-opacity=".81569" stroke-width="1.527"/>
<rect x="-67.487" y="69.113" width="65.061" height="9.6404" fill="#47727f" fill-opacity=".81569" stroke="#294650" stroke-opacity=".81569" stroke-width="1.336"/>
<rect x="-45.401" y="71.095" width="37.284" height="5.5244" fill="#47727f" fill-opacity=".81569" stroke="#294650" stroke-opacity=".81569" stroke-width=".76562"/>
<path d="m-52.781 71.461a2 2 0 0 1 1.9414 2.0414 2 2 0 0 1 -2.026 1.9575 2 2 0 0 1 -1.9736 -2.0104 2 2 0 0 1 1.9946 -1.9895" fill="#00af6c" fill-opacity=".81569" stroke="#00af6c" stroke-opacity=".81569" stroke-width="1.527"/>
<path d="m-62.041 71.367a2 2 0 0 1 1.9414 2.0414 2 2 0 0 1 -2.026 1.9575 2 2 0 0 1 -1.9736 -2.0104 2 2 0 0 1 1.9946 -1.9895" fill="#df1442" fill-opacity=".81569" stroke="#df1442" stroke-opacity=".81569" stroke-width="1.527"/>
<rect x="-67.487" y="59.748" width="65.061" height="9.6404" fill="#47727f" fill-opacity=".81569" stroke="#294650" stroke-opacity=".81569" stroke-width="1.336"/>
<rect x="-45.401" y="61.73" width="37.284" height="5.5244" fill="#47727f" fill-opacity=".81569" stroke="#294650" stroke-opacity=".81569" stroke-width=".76562"/>
<path d="m-52.781 62.096a2 2 0 0 1 1.9414 2.0414 2 2 0 0 1 -2.026 1.9575 2 2 0 0 1 -1.9736 -2.0104 2 2 0 0 1 1.9946 -1.9895" fill="#00af6c" fill-opacity=".81569" stroke="#00af6c" stroke-opacity=".81569" stroke-width="1.527"/>
<path d="m-62.041 62.002a2 2 0 0 1 1.9414 2.0414 2 2 0 0 1 -2.026 1.9575 2 2 0 0 1 -1.9736 -2.0104 2 2 0 0 1 1.9946 -1.9895" fill="#df1442" fill-opacity=".81569" stroke="#df1442" stroke-opacity=".81569" stroke-width="1.527"/>
<rect x="-67.487" y="99.1" width="65.061" height="9.6404" fill="#47727f" fill-opacity=".81569" stroke="#294650" stroke-opacity=".81569" stroke-width="1.336"/>
<rect x="-45.401" y="101.08" width="37.284" height="5.5244" fill="#47727f" fill-opacity=".81569" stroke="#294650" stroke-opacity=".81569" stroke-width=".76562"/>
<path d="m-52.781 101.45a2 2 0 0 1 1.9414 2.0414 2 2 0 0 1 -2.026 1.9575 2 2 0 0 1 -1.9736 -2.0104 2 2 0 0 1 1.9946 -1.9895" fill="#00af6c" fill-opacity=".81569" stroke="#00af6c" stroke-opacity=".81569" stroke-width="1.527"/>
<path d="m-62.041 101.35a2 2 0 0 1 1.9414 2.0414 2 2 0 0 1 -2.026 1.9575 2 2 0 0 1 -1.9736 -2.0104 2 2 0 0 1 1.9946 -1.9895" fill="#df1442" fill-opacity=".81569" stroke="#df1442" stroke-opacity=".81569" stroke-width="1.527"/>
<rect x="-67.487" y="78.225" width="65.061" height="9.6404" fill="#47727f" fill-opacity=".81569" stroke="#294650" stroke-opacity=".81569" stroke-width="1.336"/>
<rect x="-45.401" y="80.207" width="37.284" height="5.5244" fill="#47727f" fill-opacity=".81569" stroke="#294650" stroke-opacity=".81569" stroke-width=".76562"/>
<path d="m-52.781 80.573a2 2 0 0 1 1.9414 2.0414 2 2 0 0 1 -2.026 1.9575 2 2 0 0 1 -1.9736 -2.0104 2 2 0 0 1 1.9946 -1.9895" fill="#00af6c" fill-opacity=".81569" stroke="#00af6c" stroke-opacity=".81569" stroke-width="1.527"/>
<path d="m-62.041 80.479a2 2 0 0 1 1.9414 2.0414 2 2 0 0 1 -2.026 1.9575 2 2 0 0 1 -1.9736 -2.0104 2 2 0 0 1 1.9946 -1.9895" fill="#df1442" fill-opacity=".81569" stroke="#df1442" stroke-opacity=".81569" stroke-width="1.527"/>
<rect x="-67.487" y="38.896" width="65.061" height="9.6404" fill="#47727f" fill-opacity=".81569" stroke="#294650" stroke-opacity=".81569" stroke-width="1.336"/>
<rect x="-45.401" y="40.878" width="37.284" height="5.5244" fill="#47727f" fill-opacity=".81569" stroke="#294650" stroke-opacity=".81569" stroke-width=".76562"/>
<path d="m-52.781 41.244a2 2 0 0 1 1.9414 2.0414 2 2 0 0 1 -2.026 1.9575 2 2 0 0 1 -1.9736 -2.0104 2 2 0 0 1 1.9946 -1.9895" fill="#00af6c" fill-opacity=".81569" stroke="#00af6c" stroke-opacity=".81569" stroke-width="1.527"/>
<path d="m-62.041 41.15a2 2 0 0 1 1.9414 2.0414 2 2 0 0 1 -2.026 1.9575 2 2 0 0 1 -1.9736 -2.0104 2 2 0 0 1 1.9946 -1.9895" fill="#df1442" fill-opacity=".81569" stroke="#df1442" stroke-opacity=".81569" stroke-width="1.527"/>
<rect x="2.659" y="4.6685" width="73.766" height="178" ry="0" fill="#172c35" fill-opacity=".95686" stroke="#172c35" stroke-width=".8"/>
<path d="m76.425 182.67 71.628-49.712" fill="#172c35" fill-opacity=".95686" stroke="#172c35" stroke-width=".765"/>
<rect x="6.9442" y="7.2568" width="65.061" height="9.6404" fill="#47727f" fill-opacity=".81569" stroke="#294650" stroke-opacity=".81569" stroke-width="1.336"/>
<rect x="29.03" y="9.2395" width="37.284" height="5.5244" fill="#47727f" fill-opacity=".81569" stroke="#294650" stroke-opacity=".81569" stroke-width=".76562"/>
<path d="m21.65 9.6053a2 2 0 0 1 1.9414 2.0414 2 2 0 0 1 -2.026 1.9575 2 2 0 0 1 -1.9736 -2.0104 2 2 0 0 1 1.9946 -1.9895" fill="#00af6c" fill-opacity=".81569" stroke="#00af6c" stroke-opacity=".81569" stroke-width="1.527"/>
<path d="m12.389 9.5108a2 2 0 0 1 1.9414 2.0414 2 2 0 0 1 -2.026 1.9575 2 2 0 0 1 -1.9736 -2.0104 2 2 0 0 1 1.9946 -1.9895" fill="#df1442" fill-opacity=".81569" stroke="#df1442" stroke-opacity=".81569" stroke-width="1.527"/>
<rect x="6.9442" y="18.202" width="65.061" height="9.6404" fill="#47727f" fill-opacity=".81569" stroke="#294650" stroke-opacity=".81569" stroke-width="1.336"/>
<rect x="29.03" y="20.184" width="37.284" height="5.5244" fill="#47727f" fill-opacity=".81569" stroke="#294650" stroke-opacity=".81569" stroke-width=".76562"/>
<path d="m21.65 20.55a2 2 0 0 1 1.9414 2.0414 2 2 0 0 1 -2.026 1.9575 2 2 0 0 1 -1.9736 -2.0104 2 2 0 0 1 1.9946 -1.9895" fill="#00af6c" fill-opacity=".81569" stroke="#00af6c" stroke-opacity=".81569" stroke-width="1.527"/>
<path d="m12.389 20.456a2 2 0 0 1 1.9414 2.0414 2 2 0 0 1 -2.026 1.9575 2 2 0 0 1 -1.9736 -2.0104 2 2 0 0 1 1.9946 -1.9895" fill="#df1442" fill-opacity=".81569" stroke="#df1442" stroke-opacity=".81569" stroke-width="1.527"/>
<rect x="6.9442" y="159.43" width="65.061" height="9.6404" fill="#47727f" fill-opacity=".81569" stroke="#294650" stroke-opacity=".81569" stroke-width="1.336"/>
<rect x="29.03" y="161.42" width="37.284" height="5.5244" fill="#47727f" fill-opacity=".81569" stroke="#294650" stroke-opacity=".81569" stroke-width=".76562"/>
<path d="m21.65 161.78a2 2 0 0 1 1.9414 2.0414 2 2 0 0 1 -2.026 1.9575 2 2 0 0 1 -1.9736 -2.0104 2 2 0 0 1 1.9946 -1.9895" fill="#00af6c" fill-opacity=".81569" stroke="#00af6c" stroke-opacity=".81569" stroke-width="1.527"/>
<path d="m12.389 161.69a2 2 0 0 1 1.9414 2.0414 2 2 0 0 1 -2.026 1.9575 2 2 0 0 1 -1.9736 -2.0104 2 2 0 0 1 1.9946 -1.9895" fill="#df1442" fill-opacity=".81569" stroke="#df1442" stroke-opacity=".81569" stroke-width="1.527"/>
<rect x="6.9442" y="169.88" width="65.061" height="9.6404" fill="#47727f" fill-opacity=".81569" stroke="#294650" stroke-opacity=".81569" stroke-width="1.336"/>
<rect x="29.03" y="171.87" width="37.284" height="5.5244" fill="#47727f" fill-opacity=".81569" stroke="#294650" stroke-opacity=".81569" stroke-width=".76562"/>
<path d="m21.65 172.23a2 2 0 0 1 1.9414 2.0414 2 2 0 0 1 -2.026 1.9576 2 2 0 0 1 -1.9736 -2.0104 2 2 0 0 1 1.9946 -1.9895" fill="#00af6c" fill-opacity=".81569" stroke="#00af6c" stroke-opacity=".81569" stroke-width="1.527"/>
<path d="m12.389 172.14a2 2 0 0 1 1.9414 2.0414 2 2 0 0 1 -2.026 1.9575 2 2 0 0 1 -1.9736 -2.0104 2 2 0 0 1 1.9946 -1.9895" fill="#df1442" fill-opacity=".81569" stroke="#df1442" stroke-opacity=".81569" stroke-width="1.527"/>
<rect x="6.9442" y="149.29" width="65.061" height="9.6404" fill="#47727f" fill-opacity=".81569" stroke="#294650" stroke-opacity=".81569" stroke-width="1.336"/>
<rect x="6.9442" y="139.52" width="65.061" height="9.6404" fill="#47727f" fill-opacity=".81569" stroke="#294650" stroke-opacity=".81569" stroke-width="1.336"/>
<rect x="29.099" y="141.51" width="37.284" height="5.5244" fill="#47727f" fill-opacity=".81569" stroke="#294650" stroke-opacity=".81569" stroke-width=".76562"/>
<path d="m21.719 141.87a2 2 0 0 1 1.9414 2.0414 2 2 0 0 1 -2.026 1.9575 2 2 0 0 1 -1.9736 -2.0104 2 2 0 0 1 1.9946 -1.9895" fill="#00af6c" fill-opacity=".81569" stroke="#00af6c" stroke-opacity=".81569" stroke-width="1.527"/>
<path d="m12.459 141.78a2 2 0 0 1 1.9414 2.0414 2 2 0 0 1 -2.026 1.9575 2 2 0 0 1 -1.9736 -2.0104 2 2 0 0 1 1.9946 -1.9895" fill="#df1442" fill-opacity=".81569" stroke="#df1442" stroke-opacity=".81569" stroke-width="1.527"/>
<rect x="29.03" y="151.28" width="37.284" height="5.5244" fill="#47727f" fill-opacity=".81569" stroke="#294650" stroke-opacity=".81569" stroke-width=".76562"/>
<path d="m21.65 151.64a2 2 0 0 1 1.9414 2.0414 2 2 0 0 1 -2.026 1.9576 2 2 0 0 1 -1.9736 -2.0104 2 2 0 0 1 1.9946 -1.9895" fill="#00af6c" fill-opacity=".81569" stroke="#00af6c" stroke-opacity=".81569" stroke-width="1.527"/>
<path d="m12.389 151.55a2 2 0 0 1 1.9414 2.0414 2 2 0 0 1 -2.026 1.9575 2 2 0 0 1 -1.9736 -2.0104 2 2 0 0 1 1.9946 -1.9895" fill="#df1442" fill-opacity=".81569" stroke="#df1442" stroke-opacity=".81569" stroke-width="1.527"/>
<rect x="6.9442" y="28.507" width="65.061" height="9.6404" fill="#47727f" fill-opacity=".81569" stroke="#294650" stroke-opacity=".81569" stroke-width="1.336"/>
<rect x="29.03" y="30.49" width="37.284" height="5.5244" fill="#47727f" fill-opacity=".81569" stroke="#294650" stroke-opacity=".81569" stroke-width=".76562"/>
<path d="m21.65 30.855a2 2 0 0 1 1.9414 2.0414 2 2 0 0 1 -2.026 1.9575 2 2 0 0 1 -1.9736 -2.0104 2 2 0 0 1 1.9946 -1.9895" fill="#00af6c" fill-opacity=".81569" stroke="#00af6c" stroke-opacity=".81569" stroke-width="1.527"/>
<path d="m12.389 30.761a2 2 0 0 1 1.9414 2.0414 2 2 0 0 1 -2.026 1.9575 2 2 0 0 1 -1.9736 -2.0104 2 2 0 0 1 1.9946 -1.9895" fill="#df1442" fill-opacity=".81569" stroke="#df1442" stroke-opacity=".81569" stroke-width="1.527"/>
<rect x="6.9442" y="119.01" width="65.061" height="9.6404" fill="#47727f" fill-opacity=".81569" stroke="#294650" stroke-opacity=".81569" stroke-width="1.336"/>
<rect x="29.03" y="121" width="37.284" height="5.5244" fill="#47727f" fill-opacity=".81569" stroke="#294650" stroke-opacity=".81569" stroke-width=".76562"/>
<path d="m21.65 121.36a2 2 0 0 1 1.9414 2.0414 2 2 0 0 1 -2.026 1.9575 2 2 0 0 1 -1.9736 -2.0104 2 2 0 0 1 1.9946 -1.9895" fill="#00af6c" fill-opacity=".81569" stroke="#00af6c" stroke-opacity=".81569" stroke-width="1.527"/>
<path d="m12.39 121.27a2 2 0 0 1 1.9414 2.0414 2 2 0 0 1 -2.026 1.9575 2 2 0 0 1 -1.9736 -2.0104 2 2 0 0 1 1.9946 -1.9895" fill="#df1442" fill-opacity=".81569" stroke="#df1442" stroke-opacity=".81569" stroke-width="1.527"/>
<rect x="6.9442" y="108.77" width="65.061" height="9.6404" fill="#47727f" fill-opacity=".81569" stroke="#294650" stroke-opacity=".81569" stroke-width="1.336"/>
<rect x="29.03" y="110.75" width="37.284" height="5.5244" fill="#47727f" fill-opacity=".81569" stroke="#294650" stroke-opacity=".81569" stroke-width=".76562"/>
<path d="m21.65 111.12a2 2 0 0 1 1.9414 2.0414 2 2 0 0 1 -2.026 1.9575 2 2 0 0 1 -1.9736 -2.0104 2 2 0 0 1 1.9946 -1.9895" fill="#00af6c" fill-opacity=".81569" stroke="#00af6c" stroke-opacity=".81569" stroke-width="1.527"/>
<path d="m12.39 111.02a2 2 0 0 1 1.9414 2.0414 2 2 0 0 1 -2.026 1.9575 2 2 0 0 1 -1.9736 -2.0104 2 2 0 0 1 1.9946 -1.9895" fill="#df1442" fill-opacity=".81569" stroke="#df1442" stroke-opacity=".81569" stroke-width="1.527"/>
<rect x="6.9442" y="88.643" width="65.061" height="9.6404" fill="#47727f" fill-opacity=".81569" stroke="#294650" stroke-opacity=".81569" stroke-width="1.336"/>
<rect x="29.03" y="90.626" width="37.284" height="5.5244" fill="#47727f" fill-opacity=".81569" stroke="#294650" stroke-opacity=".81569" stroke-width=".76562"/>
<path d="m21.65 90.991a2 2 0 0 1 1.9414 2.0414 2 2 0 0 1 -2.026 1.9575 2 2 0 0 1 -1.9736 -2.0104 2 2 0 0 1 1.9946 -1.9895" fill="#00af6c" fill-opacity=".81569" stroke="#00af6c" stroke-opacity=".81569" stroke-width="1.527"/>
<path d="m12.39 90.897a2 2 0 0 1 1.9414 2.0414 2 2 0 0 1 -2.026 1.9575 2 2 0 0 1 -1.9736 -2.0104 2 2 0 0 1 1.9946 -1.9895" fill="#df1442" fill-opacity=".81569" stroke="#df1442" stroke-opacity=".81569" stroke-width="1.527"/>
<rect x="6.9442" y="49.188" width="65.061" height="9.6404" fill="#47727f" fill-opacity=".81569" stroke="#294650" stroke-opacity=".81569" stroke-width="1.336"/>
<rect x="29.03" y="51.17" width="37.284" height="5.5244" fill="#47727f" fill-opacity=".81569" stroke="#294650" stroke-opacity=".81569" stroke-width=".76562"/>
<path d="m21.65 51.536a2 2 0 0 1 1.9414 2.0414 2 2 0 0 1 -2.026 1.9575 2 2 0 0 1 -1.9736 -2.0104 2 2 0 0 1 1.9946 -1.9895" fill="#00af6c" fill-opacity=".81569" stroke="#00af6c" stroke-opacity=".81569" stroke-width="1.527"/>
<path d="m12.39 51.442a2 2 0 0 1 1.9414 2.0414 2 2 0 0 1 -2.026 1.9575 2 2 0 0 1 -1.9736 -2.0104 2 2 0 0 1 1.9946 -1.9895" fill="#df1442" fill-opacity=".81569" stroke="#df1442" stroke-opacity=".81569" stroke-width="1.527"/>
<rect x="6.9442" y="129.29" width="65.061" height="9.6404" fill="#47727f" fill-opacity=".81569" stroke="#294650" stroke-opacity=".81569" stroke-width="1.336"/>
<rect x="29.03" y="131.27" width="37.284" height="5.5244" fill="#47727f" fill-opacity=".81569" stroke="#294650" stroke-opacity=".81569" stroke-width=".76562"/>
<path d="m21.65 131.64a2 2 0 0 1 1.9414 2.0414 2 2 0 0 1 -2.026 1.9575 2 2 0 0 1 -1.9736 -2.0104 2 2 0 0 1 1.9946 -1.9895" fill="#00af6c" fill-opacity=".81569" stroke="#00af6c" stroke-opacity=".81569" stroke-width="1.527"/>
<path d="m12.39 131.54a2 2 0 0 1 1.9414 2.0414 2 2 0 0 1 -2.026 1.9575 2 2 0 0 1 -1.9736 -2.0104 2 2 0 0 1 1.9946 -1.9895" fill="#df1442" fill-opacity=".81569" stroke="#df1442" stroke-opacity=".81569" stroke-width="1.527"/>
<rect x="6.9442" y="69.113" width="65.061" height="9.6404" fill="#47727f" fill-opacity=".81569" stroke="#294650" stroke-opacity=".81569" stroke-width="1.336"/>
<rect x="29.03" y="71.095" width="37.284" height="5.5244" fill="#47727f" fill-opacity=".81569" stroke="#294650" stroke-opacity=".81569" stroke-width=".76562"/>
<path d="m21.65 71.461a2 2 0 0 1 1.9414 2.0414 2 2 0 0 1 -2.026 1.9575 2 2 0 0 1 -1.9736 -2.0104 2 2 0 0 1 1.9946 -1.9895" fill="#00af6c" fill-opacity=".81569" stroke="#00af6c" stroke-opacity=".81569" stroke-width="1.527"/>
<path d="m12.39 71.367a2 2 0 0 1 1.9414 2.0414 2 2 0 0 1 -2.026 1.9575 2 2 0 0 1 -1.9736 -2.0104 2 2 0 0 1 1.9946 -1.9895" fill="#df1442" fill-opacity=".81569" stroke="#df1442" stroke-opacity=".81569" stroke-width="1.527"/>
<rect x="6.9442" y="59.748" width="65.061" height="9.6404" fill="#47727f" fill-opacity=".81569" stroke="#294650" stroke-opacity=".81569" stroke-width="1.336"/>
<rect x="29.03" y="61.73" width="37.284" height="5.5244" fill="#47727f" fill-opacity=".81569" stroke="#294650" stroke-opacity=".81569" stroke-width=".76562"/>
<path d="m21.65 62.096a2 2 0 0 1 1.9414 2.0414 2 2 0 0 1 -2.026 1.9575 2 2 0 0 1 -1.9736 -2.0104 2 2 0 0 1 1.9946 -1.9895" fill="#00af6c" fill-opacity=".81569" stroke="#00af6c" stroke-opacity=".81569" stroke-width="1.527"/>
<path d="m12.39 62.002a2 2 0 0 1 1.9414 2.0414 2 2 0 0 1 -2.026 1.9575 2 2 0 0 1 -1.9736 -2.0104 2 2 0 0 1 1.9946 -1.9895" fill="#df1442" fill-opacity=".81569" stroke="#df1442" stroke-opacity=".81569" stroke-width="1.527"/>
<rect x="6.9442" y="99.1" width="65.061" height="9.6404" fill="#47727f" fill-opacity=".81569" stroke="#294650" stroke-opacity=".81569" stroke-width="1.336"/>
<rect x="29.03" y="101.08" width="37.284" height="5.5244" fill="#47727f" fill-opacity=".81569" stroke="#294650" stroke-opacity=".81569" stroke-width=".76562"/>
<path d="m21.65 101.45a2 2 0 0 1 1.9414 2.0414 2 2 0 0 1 -2.026 1.9575 2 2 0 0 1 -1.9736 -2.0104 2 2 0 0 1 1.9946 -1.9895" fill="#00af6c" fill-opacity=".81569" stroke="#00af6c" stroke-opacity=".81569" stroke-width="1.527"/>
<path d="m12.39 101.35a2 2 0 0 1 1.9414 2.0414 2 2 0 0 1 -2.026 1.9575 2 2 0 0 1 -1.9736 -2.0104 2 2 0 0 1 1.9946 -1.9895" fill="#df1442" fill-opacity=".81569" stroke="#df1442" stroke-opacity=".81569" stroke-width="1.527"/>
<rect x="6.9442" y="78.225" width="65.061" height="9.6404" fill="#47727f" fill-opacity=".81569" stroke="#294650" stroke-opacity=".81569" stroke-width="1.336"/>
<rect x="29.03" y="80.207" width="37.284" height="5.5244" fill="#47727f" fill-opacity=".81569" stroke="#294650" stroke-opacity=".81569" stroke-width=".76562"/>
<path d="m21.65 80.573a2 2 0 0 1 1.9414 2.0414 2 2 0 0 1 -2.026 1.9575 2 2 0 0 1 -1.9736 -2.0104 2 2 0 0 1 1.9946 -1.9895" fill="#00af6c" fill-opacity=".81569" stroke="#00af6c" stroke-opacity=".81569" stroke-width="1.527"/>
<path d="m12.39 80.479a2 2 0 0 1 1.9414 2.0414 2 2 0 0 1 -2.026 1.9575 2 2 0 0 1 -1.9736 -2.0104 2 2 0 0 1 1.9946 -1.9895" fill="#df1442" fill-opacity=".81569" stroke="#df1442" stroke-opacity=".81569" stroke-width="1.527"/>
<rect x="6.9442" y="38.896" width="65.061" height="9.6404" fill="#47727f" fill-opacity=".81569" stroke="#294650" stroke-opacity=".81569" stroke-width="1.336"/>
<rect x="29.03" y="40.878" width="37.284" height="5.5244" fill="#47727f" fill-opacity=".81569" stroke="#294650" stroke-opacity=".81569" stroke-width=".76562"/>
<path d="m21.65 41.244a2 2 0 0 1 1.9414 2.0414 2 2 0 0 1 -2.026 1.9575 2 2 0 0 1 -1.9736 -2.0104 2 2 0 0 1 1.9946 -1.9895" fill="#00af6c" fill-opacity=".81569" stroke="#00af6c" stroke-opacity=".81569" stroke-width="1.527"/>
<path d="m12.39 41.15a2 2 0 0 1 1.9414 2.0414 2 2 0 0 1 -2.026 1.9575 2 2 0 0 1 -1.9736 -2.0104 2 2 0 0 1 1.9946 -1.9895" fill="#df1442" fill-opacity=".81569" stroke="#df1442" stroke-opacity=".81569" stroke-width="1.527"/>
<rect x="77.272" y="4.6685" width="73.766" height="178" ry="0" fill="#172c35" fill-opacity=".95686" stroke="#172c35" stroke-width=".8"/>
<path d="m151.04 182.67 71.628-49.712" fill="#172c35" fill-opacity=".95686" stroke="#172c35" stroke-width=".765"/>
<rect x="81.557" y="7.2568" width="65.061" height="9.6404" fill="#47727f" fill-opacity=".81569" stroke="#294650" stroke-opacity=".81569" stroke-width="1.336"/>
<rect x="103.64" y="9.2395" width="37.284" height="5.5244" fill="#47727f" fill-opacity=".81569" stroke="#294650" stroke-opacity=".81569" stroke-width=".76562"/>
<path d="m96.263 9.6053a2 2 0 0 1 1.9414 2.0414 2 2 0 0 1 -2.026 1.9575 2 2 0 0 1 -1.9736 -2.0104 2 2 0 0 1 1.9946 -1.9895" fill="#00af6c" fill-opacity=".81569" stroke="#00af6c" stroke-opacity=".81569" stroke-width="1.527"/>
<path d="m87.002 9.5108a2 2 0 0 1 1.9414 2.0414 2 2 0 0 1 -2.026 1.9575 2 2 0 0 1 -1.9736 -2.0104 2 2 0 0 1 1.9946 -1.9895" fill="#df1442" fill-opacity=".81569" stroke="#df1442" stroke-opacity=".81569" stroke-width="1.527"/>
<rect x="81.557" y="18.202" width="65.061" height="9.6404" fill="#47727f" fill-opacity=".81569" stroke="#294650" stroke-opacity=".81569" stroke-width="1.336"/>
<rect x="103.64" y="20.184" width="37.284" height="5.5244" fill="#47727f" fill-opacity=".81569" stroke="#294650" stroke-opacity=".81569" stroke-width=".76562"/>
<path d="m96.263 20.55a2 2 0 0 1 1.9414 2.0414 2 2 0 0 1 -2.026 1.9575 2 2 0 0 1 -1.9736 -2.0104 2 2 0 0 1 1.9946 -1.9895" fill="#00af6c" fill-opacity=".81569" stroke="#00af6c" stroke-opacity=".81569" stroke-width="1.527"/>
<path d="m87.002 20.456a2 2 0 0 1 1.9414 2.0414 2 2 0 0 1 -2.026 1.9575 2 2 0 0 1 -1.9736 -2.0104 2 2 0 0 1 1.9946 -1.9895" fill="#df1442" fill-opacity=".81569" stroke="#df1442" stroke-opacity=".81569" stroke-width="1.527"/>
<rect x="81.557" y="159.43" width="65.061" height="9.6404" fill="#47727f" fill-opacity=".81569" stroke="#294650" stroke-opacity=".81569" stroke-width="1.336"/>
<rect x="103.64" y="161.42" width="37.284" height="5.5244" fill="#47727f" fill-opacity=".81569" stroke="#294650" stroke-opacity=".81569" stroke-width=".76562"/>
<path d="m96.263 161.78a2 2 0 0 1 1.9414 2.0414 2 2 0 0 1 -2.026 1.9576 2 2 0 0 1 -1.9736 -2.0104 2 2 0 0 1 1.9946 -1.9895" fill="#00af6c" fill-opacity=".81569" stroke="#00af6c" stroke-opacity=".81569" stroke-width="1.527"/>
<path d="m87.002 161.69a2 2 0 0 1 1.9414 2.0414 2 2 0 0 1 -2.026 1.9575 2 2 0 0 1 -1.9736 -2.0104 2 2 0 0 1 1.9946 -1.9895" fill="#df1442" fill-opacity=".81569" stroke="#df1442" stroke-opacity=".81569" stroke-width="1.527"/>
<rect x="81.557" y="169.88" width="65.061" height="9.6404" fill="#47727f" fill-opacity=".81569" stroke="#294650" stroke-opacity=".81569" stroke-width="1.336"/>
<rect x="103.64" y="171.87" width="37.284" height="5.5244" fill="#47727f" fill-opacity=".81569" stroke="#294650" stroke-opacity=".81569" stroke-width=".76562"/>
<path d="m96.263 172.23a2 2 0 0 1 1.9414 2.0414 2 2 0 0 1 -2.026 1.9575 2 2 0 0 1 -1.9736 -2.0104 2 2 0 0 1 1.9946 -1.9895" fill="#00af6c" fill-opacity=".81569" stroke="#00af6c" stroke-opacity=".81569" stroke-width="1.527"/>
<path d="m87.002 172.14a2 2 0 0 1 1.9414 2.0414 2 2 0 0 1 -2.026 1.9575 2 2 0 0 1 -1.9736 -2.0104 2 2 0 0 1 1.9946 -1.9895" fill="#df1442" fill-opacity=".81569" stroke="#df1442" stroke-opacity=".81569" stroke-width="1.527"/>
<rect x="81.557" y="149.29" width="65.061" height="9.6404" fill="#47727f" fill-opacity=".81569" stroke="#294650" stroke-opacity=".81569" stroke-width="1.336"/>
<rect x="81.557" y="139.52" width="65.061" height="9.6404" fill="#47727f" fill-opacity=".81569" stroke="#294650" stroke-opacity=".81569" stroke-width="1.336"/>
<rect x="103.71" y="141.51" width="37.284" height="5.5244" fill="#47727f" fill-opacity=".81569" stroke="#294650" stroke-opacity=".81569" stroke-width=".76562"/>
<path d="m96.332 141.87a2 2 0 0 1 1.9414 2.0414 2 2 0 0 1 -2.026 1.9575 2 2 0 0 1 -1.9736 -2.0104 2 2 0 0 1 1.9946 -1.9895" fill="#00af6c" fill-opacity=".81569" stroke="#00af6c" stroke-opacity=".81569" stroke-width="1.527"/>
<path d="m87.071 141.78a2 2 0 0 1 1.9414 2.0414 2 2 0 0 1 -2.026 1.9576 2 2 0 0 1 -1.9736 -2.0104 2 2 0 0 1 1.9946 -1.9895" fill="#df1442" fill-opacity=".81569" stroke="#df1442" stroke-opacity=".81569" stroke-width="1.527"/>
<rect x="103.64" y="151.28" width="37.284" height="5.5244" fill="#47727f" fill-opacity=".81569" stroke="#294650" stroke-opacity=".81569" stroke-width=".76562"/>
<path d="m96.263 151.64a2 2 0 0 1 1.9414 2.0414 2 2 0 0 1 -2.026 1.9576 2 2 0 0 1 -1.9736 -2.0104 2 2 0 0 1 1.9946 -1.9895" fill="#00af6c" fill-opacity=".81569" stroke="#00af6c" stroke-opacity=".81569" stroke-width="1.527"/>
<path d="m87.002 151.55a2 2 0 0 1 1.9414 2.0414 2 2 0 0 1 -2.026 1.9575 2 2 0 0 1 -1.9736 -2.0104 2 2 0 0 1 1.9946 -1.9895" fill="#df1442" fill-opacity=".81569" stroke="#df1442" stroke-opacity=".81569" stroke-width="1.527"/>
<rect x="81.557" y="28.507" width="65.061" height="9.6404" fill="#47727f" fill-opacity=".81569" stroke="#294650" stroke-opacity=".81569" stroke-width="1.336"/>
<rect x="103.64" y="30.49" width="37.284" height="5.5244" fill="#47727f" fill-opacity=".81569" stroke="#294650" stroke-opacity=".81569" stroke-width=".76562"/>
<path d="m96.263 30.855a2 2 0 0 1 1.9414 2.0414 2 2 0 0 1 -2.026 1.9575 2 2 0 0 1 -1.9736 -2.0104 2 2 0 0 1 1.9946 -1.9895" fill="#00af6c" fill-opacity=".81569" stroke="#00af6c" stroke-opacity=".81569" stroke-width="1.527"/>
<path d="m87.002 30.761a2 2 0 0 1 1.9414 2.0414 2 2 0 0 1 -2.026 1.9575 2 2 0 0 1 -1.9736 -2.0104 2 2 0 0 1 1.9946 -1.9895" fill="#df1442" fill-opacity=".81569" stroke="#df1442" stroke-opacity=".81569" stroke-width="1.527"/>
<rect x="81.557" y="119.01" width="65.061" height="9.6404" fill="#47727f" fill-opacity=".81569" stroke="#294650" stroke-opacity=".81569" stroke-width="1.336"/>
<rect x="103.64" y="121" width="37.284" height="5.5244" fill="#47727f" fill-opacity=".81569" stroke="#294650" stroke-opacity=".81569" stroke-width=".76562"/>
<path d="m96.263 121.36a2 2 0 0 1 1.9414 2.0414 2 2 0 0 1 -2.026 1.9575 2 2 0 0 1 -1.9736 -2.0104 2 2 0 0 1 1.9946 -1.9895" fill="#00af6c" fill-opacity=".81569" stroke="#00af6c" stroke-opacity=".81569" stroke-width="1.527"/>
<path d="m87.002 121.27a2 2 0 0 1 1.9414 2.0414 2 2 0 0 1 -2.026 1.9575 2 2 0 0 1 -1.9736 -2.0104 2 2 0 0 1 1.9946 -1.9895" fill="#df1442" fill-opacity=".81569" stroke="#df1442" stroke-opacity=".81569" stroke-width="1.527"/>
<rect x="81.557" y="108.77" width="65.061" height="9.6404" fill="#47727f" fill-opacity=".81569" stroke="#294650" stroke-opacity=".81569" stroke-width="1.336"/>
<rect x="103.64" y="110.75" width="37.284" height="5.5244" fill="#47727f" fill-opacity=".81569" stroke="#294650" stroke-opacity=".81569" stroke-width=".76562"/>
<path d="m96.263 111.12a2 2 0 0 1 1.9414 2.0414 2 2 0 0 1 -2.026 1.9575 2 2 0 0 1 -1.9736 -2.0104 2 2 0 0 1 1.9946 -1.9895" fill="#00af6c" fill-opacity=".81569" stroke="#00af6c" stroke-opacity=".81569" stroke-width="1.527"/>
<path d="m87.002 111.02a2 2 0 0 1 1.9414 2.0414 2 2 0 0 1 -2.026 1.9575 2 2 0 0 1 -1.9736 -2.0104 2 2 0 0 1 1.9946 -1.9895" fill="#df1442" fill-opacity=".81569" stroke="#df1442" stroke-opacity=".81569" stroke-width="1.527"/>
<rect x="81.557" y="88.643" width="65.061" height="9.6404" fill="#47727f" fill-opacity=".81569" stroke="#294650" stroke-opacity=".81569" stroke-width="1.336"/>
<rect x="103.64" y="90.626" width="37.284" height="5.5244" fill="#47727f" fill-opacity=".81569" stroke="#294650" stroke-opacity=".81569" stroke-width=".76562"/>
<path d="m96.263 90.991a2 2 0 0 1 1.9414 2.0414 2 2 0 0 1 -2.026 1.9575 2 2 0 0 1 -1.9736 -2.0104 2 2 0 0 1 1.9946 -1.9895" fill="#00af6c" fill-opacity=".81569" stroke="#00af6c" stroke-opacity=".81569" stroke-width="1.527"/>
<path d="m87.002 90.897a2 2 0 0 1 1.9414 2.0414 2 2 0 0 1 -2.026 1.9575 2 2 0 0 1 -1.9736 -2.0104 2 2 0 0 1 1.9946 -1.9895" fill="#df1442" fill-opacity=".81569" stroke="#df1442" stroke-opacity=".81569" stroke-width="1.527"/>
<rect x="81.557" y="49.188" width="65.061" height="9.6404" fill="#47727f" fill-opacity=".81569" stroke="#294650" stroke-opacity=".81569" stroke-width="1.336"/>
<rect x="103.64" y="51.17" width="37.284" height="5.5244" fill="#47727f" fill-opacity=".81569" stroke="#294650" stroke-opacity=".81569" stroke-width=".76562"/>
<path d="m96.263 51.536a2 2 0 0 1 1.9414 2.0414 2 2 0 0 1 -2.026 1.9575 2 2 0 0 1 -1.9736 -2.0104 2 2 0 0 1 1.9946 -1.9895" fill="#00af6c" fill-opacity=".81569" stroke="#00af6c" stroke-opacity=".81569" stroke-width="1.527"/>
<path d="m87.002 51.442a2 2 0 0 1 1.9414 2.0414 2 2 0 0 1 -2.026 1.9575 2 2 0 0 1 -1.9736 -2.0104 2 2 0 0 1 1.9946 -1.9895" fill="#df1442" fill-opacity=".81569" stroke="#df1442" stroke-opacity=".81569" stroke-width="1.527"/>
<rect x="81.557" y="129.29" width="65.061" height="9.6404" fill="#47727f" fill-opacity=".81569" stroke="#294650" stroke-opacity=".81569" stroke-width="1.336"/>
<rect x="103.64" y="131.27" width="37.284" height="5.5244" fill="#47727f" fill-opacity=".81569" stroke="#294650" stroke-opacity=".81569" stroke-width=".76562"/>
<path d="m96.263 131.64a2 2 0 0 1 1.9414 2.0414 2 2 0 0 1 -2.026 1.9575 2 2 0 0 1 -1.9736 -2.0104 2 2 0 0 1 1.9946 -1.9895" fill="#00af6c" fill-opacity=".81569" stroke="#00af6c" stroke-opacity=".81569" stroke-width="1.527"/>
<path d="m87.002 131.54a2 2 0 0 1 1.9414 2.0414 2 2 0 0 1 -2.026 1.9575 2 2 0 0 1 -1.9736 -2.0104 2 2 0 0 1 1.9946 -1.9895" fill="#df1442" fill-opacity=".81569" stroke="#df1442" stroke-opacity=".81569" stroke-width="1.527"/>
<rect x="81.557" y="69.113" width="65.061" height="9.6404" fill="#47727f" fill-opacity=".81569" stroke="#294650" stroke-opacity=".81569" stroke-width="1.336"/>
<rect x="103.64" y="71.095" width="37.284" height="5.5244" fill="#47727f" fill-opacity=".81569" stroke="#294650" stroke-opacity=".81569" stroke-width=".76562"/>
<path d="m96.263 71.461a2 2 0 0 1 1.9414 2.0414 2 2 0 0 1 -2.026 1.9575 2 2 0 0 1 -1.9736 -2.0104 2 2 0 0 1 1.9946 -1.9895" fill="#00af6c" fill-opacity=".81569" stroke="#00af6c" stroke-opacity=".81569" stroke-width="1.527"/>
<path d="m87.002 71.367a2 2 0 0 1 1.9414 2.0414 2 2 0 0 1 -2.026 1.9575 2 2 0 0 1 -1.9736 -2.0104 2 2 0 0 1 1.9946 -1.9895" fill="#df1442" fill-opacity=".81569" stroke="#df1442" stroke-opacity=".81569" stroke-width="1.527"/>
<rect x="81.557" y="59.748" width="65.061" height="9.6404" fill="#47727f" fill-opacity=".81569" stroke="#294650" stroke-opacity=".81569" stroke-width="1.336"/>
<rect x="103.64" y="61.73" width="37.284" height="5.5244" fill="#47727f" fill-opacity=".81569" stroke="#294650" stroke-opacity=".81569" stroke-width=".76562"/>
<path d="m96.263 62.096a2 2 0 0 1 1.9414 2.0414 2 2 0 0 1 -2.026 1.9575 2 2 0 0 1 -1.9736 -2.0104 2 2 0 0 1 1.9946 -1.9895" fill="#00af6c" fill-opacity=".81569" stroke="#00af6c" stroke-opacity=".81569" stroke-width="1.527"/>
<path d="m87.002 62.002a2 2 0 0 1 1.9414 2.0414 2 2 0 0 1 -2.026 1.9575 2 2 0 0 1 -1.9736 -2.0104 2 2 0 0 1 1.9946 -1.9895" fill="#df1442" fill-opacity=".81569" stroke="#df1442" stroke-opacity=".81569" stroke-width="1.527"/>
<rect x="81.557" y="99.1" width="65.061" height="9.6404" fill="#47727f" fill-opacity=".81569" stroke="#294650" stroke-opacity=".81569" stroke-width="1.336"/>
<rect x="103.64" y="101.08" width="37.284" height="5.5244" fill="#47727f" fill-opacity=".81569" stroke="#294650" stroke-opacity=".81569" stroke-width=".76562"/>
<path d="m96.263 101.45a2 2 0 0 1 1.9414 2.0414 2 2 0 0 1 -2.026 1.9575 2 2 0 0 1 -1.9736 -2.0104 2 2 0 0 1 1.9946 -1.9895" fill="#00af6c" fill-opacity=".81569" stroke="#00af6c" stroke-opacity=".81569" stroke-width="1.527"/>
<path d="m87.002 101.35a2 2 0 0 1 1.9414 2.0414 2 2 0 0 1 -2.026 1.9575 2 2 0 0 1 -1.9736 -2.0104 2 2 0 0 1 1.9946 -1.9895" fill="#df1442" fill-opacity=".81569" stroke="#df1442" stroke-opacity=".81569" stroke-width="1.527"/>
<rect x="81.557" y="78.225" width="65.061" height="9.6404" fill="#47727f" fill-opacity=".81569" stroke="#294650" stroke-opacity=".81569" stroke-width="1.336"/>
<rect x="103.64" y="80.207" width="37.284" height="5.5244" fill="#47727f" fill-opacity=".81569" stroke="#294650" stroke-opacity=".81569" stroke-width=".76562"/>
<path d="m96.263 80.573a2 2 0 0 1 1.9414 2.0414 2 2 0 0 1 -2.026 1.9575 2 2 0 0 1 -1.9736 -2.0104 2 2 0 0 1 1.9946 -1.9895" fill="#00af6c" fill-opacity=".81569" stroke="#00af6c" stroke-opacity=".81569" stroke-width="1.527"/>
<path d="m87.002 80.479a2 2 0 0 1 1.9414 2.0414 2 2 0 0 1 -2.026 1.9575 2 2 0 0 1 -1.9736 -2.0104 2 2 0 0 1 1.9946 -1.9895" fill="#df1442" fill-opacity=".81569" stroke="#df1442" stroke-opacity=".81569" stroke-width="1.527"/>
<rect x="81.557" y="38.896" width="65.061" height="9.6404" fill="#47727f" fill-opacity=".81569" stroke="#294650" stroke-opacity=".81569" stroke-width="1.336"/>
<rect x="103.64" y="40.878" width="37.284" height="5.5244" fill="#47727f" fill-opacity=".81569" stroke="#294650" stroke-opacity=".81569" stroke-width=".76562"/>
<path d="m96.263 41.244a2 2 0 0 1 1.9414 2.0414 2 2 0 0 1 -2.026 1.9575 2 2 0 0 1 -1.9736 -2.0104 2 2 0 0 1 1.9946 -1.9895" fill="#00af6c" fill-opacity=".81569" stroke="#00af6c" stroke-opacity=".81569" stroke-width="1.527"/>
<path d="m87.002 41.15a2 2 0 0 1 1.9414 2.0414 2 2 0 0 1 -2.026 1.9575 2 2 0 0 1 -1.9736 -2.0104 2 2 0 0 1 1.9946 -1.9895" fill="#df1442" fill-opacity=".81569" stroke="#df1442" stroke-opacity=".81569" stroke-width="1.527"/>
<rect x="151.86" y="4.6685" width="73.766" height="178" ry="0" fill="#172c35" fill-opacity=".95686" stroke="#172c35" stroke-width=".8"/>
<path d="m225.62 182.67 71.628-49.712" fill="#172c35" fill-opacity=".95686" stroke="#172c35" stroke-width=".765"/>
<path d="m297.25 132.96 0.11812-130.21-71.628 1.6036" fill="#172c35" fill-opacity=".95686" stroke="#172c35" stroke-width=".665"/>
<path d="m226.2 93.851 4e-3 -87.615 0.89426 1.5119c1.7447 2.9497 68.993 124.02 69.186 124.56 0.13887 0.38749-9.9636 7.5938-34.416 24.55-19.037 13.201-34.851 24.138-35.142 24.304-0.45338 0.2588-0.52899-12.295-0.52593-87.312z" fill="#172c34" fill-opacity=".95686" opacity=".85" stroke="#172c35" stroke-width=".95"/>
<path d="m160.57 128.55c19.981-52.123 39.889-17.197 53.502 3.9697" fill="none" stroke="#f9f9f9" stroke-opacity=".71078" stroke-width="1.527"/>
<path d="m198.92 75.111c-3.0615-2.3838-4.7297-6.856-4.8202-12.922l-0.0355-2.3772 2.2484 0.60701c7.4263 2.0046 8.0363 2.0469 12.92 0.89379 2.575-0.60777 4.8176-1.0889 4.9837-1.0688 0.47784 0.0581-0.36681 5.9547-1.1529 8.0482-1.092 2.9087-4.1132 6.5319-6.3493 7.6147-2.5024 1.2115-5.6263 0.89277-7.794-0.79525z" fill="none" stroke="#b9bfc2" stroke-opacity=".98824" stroke-width="1.5174"/>
<path d="m162.49 74.981c-3.0615-2.3838-4.7297-6.856-4.8202-12.922l-0.0355-2.3772 2.2484 0.60701c7.4263 2.0046 8.0363 2.0469 12.92 0.89379 2.575-0.60777 4.8176-1.0889 4.9837-1.0688 0.47788 0.0581-0.36681 5.9547-1.1529 8.0482-1.092 2.9087-4.1132 6.5319-6.3493 7.6147-2.5024 1.2115-5.6263 0.89277-7.794-0.79525z" fill="none" stroke="#b9bfc2" stroke-opacity=".98824" stroke-width="1.5174"/>
<rect x="156.14" y="7.2568" width="65.061" height="9.6404" fill="#47727f" fill-opacity=".81569" stroke="#294650" stroke-opacity=".81569" stroke-width="1.336"/>
<rect x="178.23" y="9.2395" width="37.284" height="5.5244" fill="#47727f" fill-opacity=".81569" stroke="#294650" stroke-opacity=".81569" stroke-width=".76562"/>
<path d="m170.85 9.6053a2 2 0 0 1 1.9414 2.0414 2 2 0 0 1 -2.026 1.9575 2 2 0 0 1 -1.9736 -2.0104 2 2 0 0 1 1.9946 -1.9895" fill="#00af6c" fill-opacity=".81569" stroke="#00af6c" stroke-opacity=".81569" stroke-width="1.527"/>
<path d="m161.59 9.5108a2 2 0 0 1 1.9414 2.0414 2 2 0 0 1 -2.026 1.9575 2 2 0 0 1 -1.9736 -2.0104 2 2 0 0 1 1.9946 -1.9895" fill="#df1442" fill-opacity=".81569" stroke="#df1442" stroke-opacity=".81569" stroke-width="1.527"/>
<rect x="156.14" y="18.202" width="65.061" height="9.6404" fill="#47727f" fill-opacity=".81569" stroke="#294650" stroke-opacity=".81569" stroke-width="1.336"/>
<rect x="178.23" y="20.184" width="37.284" height="5.5244" fill="#47727f" fill-opacity=".81569" stroke="#294650" stroke-opacity=".81569" stroke-width=".76562"/>
<path d="m170.85 20.55a2 2 0 0 1 1.9414 2.0414 2 2 0 0 1 -2.026 1.9575 2 2 0 0 1 -1.9736 -2.0104 2 2 0 0 1 1.9946 -1.9895" fill="#00af6c" fill-opacity=".81569" stroke="#00af6c" stroke-opacity=".81569" stroke-width="1.527"/>
<path d="m161.59 20.456a2 2 0 0 1 1.9414 2.0414 2 2 0 0 1 -2.026 1.9575 2 2 0 0 1 -1.9736 -2.0104 2 2 0 0 1 1.9946 -1.9895" fill="#df1442" fill-opacity=".81569" stroke="#df1442" stroke-opacity=".81569" stroke-width="1.527"/>
<rect x="156.14" y="159.43" width="65.061" height="9.6404" fill="#47727f" fill-opacity=".81569" stroke="#294650" stroke-opacity=".81569" stroke-width="1.336"/>
<rect x="178.23" y="161.42" width="37.284" height="5.5244" fill="#47727f" fill-opacity=".81569" stroke="#294650" stroke-opacity=".81569" stroke-width=".76562"/>
<path d="m170.85 161.78a2 2 0 0 1 1.9414 2.0414 2 2 0 0 1 -2.026 1.9575 2 2 0 0 1 -1.9736 -2.0104 2 2 0 0 1 1.9946 -1.9895" fill="#00af6c" fill-opacity=".81569" stroke="#00af6c" stroke-opacity=".81569" stroke-width="1.527"/>
<path d="m161.59 161.69a2 2 0 0 1 1.9414 2.0414 2 2 0 0 1 -2.026 1.9575 2 2 0 0 1 -1.9736 -2.0104 2 2 0 0 1 1.9946 -1.9895" fill="#df1442" fill-opacity=".81569" stroke="#df1442" stroke-opacity=".81569" stroke-width="1.527"/>
<rect x="156.14" y="169.88" width="65.061" height="9.6404" fill="#47727f" fill-opacity=".81569" stroke="#294650" stroke-opacity=".81569" stroke-width="1.336"/>
<rect x="178.23" y="171.87" width="37.284" height="5.5244" fill="#47727f" fill-opacity=".81569" stroke="#294650" stroke-opacity=".81569" stroke-width=".76562"/>
<path d="m170.85 172.23a2 2 0 0 1 1.9414 2.0414 2 2 0 0 1 -2.026 1.9575 2 2 0 0 1 -1.9736 -2.0104 2 2 0 0 1 1.9946 -1.9895" fill="#00af6c" fill-opacity=".81569" stroke="#00af6c" stroke-opacity=".81569" stroke-width="1.527"/>
<path d="m161.59 172.14a2 2 0 0 1 1.9414 2.0414 2 2 0 0 1 -2.026 1.9576 2 2 0 0 1 -1.9736 -2.0104 2 2 0 0 1 1.9946 -1.9895" fill="#df1442" fill-opacity=".81569" stroke="#df1442" stroke-opacity=".81569" stroke-width="1.527"/>
<rect x="156.14" y="149.29" width="65.061" height="9.6404" fill="#47727f" fill-opacity=".81569" stroke="#294650" stroke-opacity=".81569" stroke-width="1.336"/>
<rect x="178.23" y="151.28" width="37.284" height="5.5244" fill="#47727f" fill-opacity=".81569" stroke="#294650" stroke-opacity=".81569" stroke-width=".76562"/>
<path d="m170.85 151.64a2 2 0 0 1 1.9414 2.0414 2 2 0 0 1 -2.026 1.9575 2 2 0 0 1 -1.9736 -2.0104 2 2 0 0 1 1.9946 -1.9895" fill="#00af6c" fill-opacity=".81569" stroke="#00af6c" stroke-opacity=".81569" stroke-width="1.527"/>
<path d="m161.59 151.55a2 2 0 0 1 1.9414 2.0414 2 2 0 0 1 -2.026 1.9575 2 2 0 0 1 -1.9736 -2.0104 2 2 0 0 1 1.9946 -1.9895" fill="#df1442" fill-opacity=".81569" stroke="#df1442" stroke-opacity=".81569" stroke-width="1.527"/>
<rect x="156.14" y="28.507" width="65.061" height="9.6404" fill="#47727f" fill-opacity=".81569" stroke="#294650" stroke-opacity=".81569" stroke-width="1.336"/>
<rect x="178.23" y="30.49" width="37.284" height="5.5244" fill="#47727f" fill-opacity=".81569" stroke="#294650" stroke-opacity=".81569" stroke-width=".76562"/>
<path d="m170.85 30.855a2 2 0 0 1 1.9414 2.0414 2 2 0 0 1 -2.026 1.9575 2 2 0 0 1 -1.9736 -2.0104 2 2 0 0 1 1.9946 -1.9895" fill="#00af6c" fill-opacity=".81569" stroke="#00af6c" stroke-opacity=".81569" stroke-width="1.527"/>
<path d="m161.59 30.761a2 2 0 0 1 1.9414 2.0414 2 2 0 0 1 -2.026 1.9575 2 2 0 0 1 -1.9736 -2.0104 2 2 0 0 1 1.9946 -1.9895" fill="#df1442" fill-opacity=".81569" stroke="#df1442" stroke-opacity=".81569" stroke-width="1.527"/>
<path d="m-512.09 428.5c-27.064-0.40082 18.28 0.4529 41.694 0l16.036-17.105 10.691-19.243 3.2072-25.658" fill="none" stroke="#000" stroke-width=".865"/>
<path d="m-443.67 392.15c-18.083-1.6078-41.5-58.83-49.178-81.25-1.8889-28.367 0.49845-48.181 4.2763-65.214 8.5526-36.66 17.105-61.32 25.658-78.043 20.336-46.765 47.895-37.025 57.73-47.039 67.998-8.8577 105.28 14.966 109.05 25.658 40.177 83.078 16.067 123.88 7.4836 162.5l-48.109 58.799c-11.522 15.933 5.6114 44.761 14.823 63.137 45.164-12.291 92.375-7.894 103.27 1.9862 14.064 15.074 25.519 36.765 27.518 55.861l18.567 180.58-374.21 9.1067-125.58-105.39c-40.404-43.741-25.293-104.56-32.578-158.49 1.5296-28.254-4.5237-16.012 3.8688-43.625 18.936-8.4881 16.697-17.02 24.021-10.898" fill="none" stroke="#000" stroke-width="1.165"/>
<path d="m-520.55 428.4c-37.445-10.297-120.28-14.551-121.76 50.477-1.2529 16.4-2.3892 31.285-5.0211 65.612l-2.6727 10.691c6.771-41.116 4.4495-28.24 4.009-42.763" fill="none" stroke="#000" stroke-width=".865"/>
<path d="m-645.99 512.52-20.045-87.664c1.5189-3.6228 15.403-13.833 15.093-20.656l9.3243-14.259c4.9258-14.93-4.2696-16.311-11.979-18.763-7.8476-1.4102-8.5443 5.7755 1.7183 10.107" fill="none" stroke="#000" stroke-width=".865"/>
<path d="m-677.16 359.73c5.3871 5.1039 8.9923 10.03 7.2938 14.425" fill="none" stroke="#000" stroke-width="1.165"/>
<path d="m-651.88 381.28-5.4703 9.9278c-8.8644 5.5961-17.462 4.5047-26.326 6.2808-6.9134 1.6087-1.8346-19.931-3.3409-26.192 2.1314-9.3927-1.3803 4.5998 0 0l7.8844-3.3409c0.83421 6.1694 8.4238 11.023 9.2643 6.192" fill="none" stroke="#000" stroke-width=".965"/>
<path d="m106.36 236.76l-3.1105 1.2138-2.1282-8.223 5.2387 7.0791v22.893l-18.772-8.3776v-27.514l13.642 5.9675-0.10914-0.11832" fill="none" stroke="#000" stroke-width=".065332"/>
<path transform="matrix(.91445 .40469 0 1 0 0)" d="m109.78 193.26a1.3633 2.0583 0 0 1 -0.48708 2.1304 1.3633 2.0583 0 0 1 -1.4881 0.17942 1.3633 2.0583 0 0 1 -0.70487 -1.9867l1.3581 0.1801z" fill="none" stroke="#000" stroke-width=".096736"/>
<path transform="matrix(.91445 .40469 0 1 0 0)" d="m101.22 193.4a1.3633 2.0583 0 0 1 -0.48708 2.1304 1.3633 2.0583 0 0 1 -1.4881 0.17942 1.3633 2.0583 0 0 1 -0.70486 -1.9867l1.3581 0.18011z" fill="none" stroke="#000" stroke-width=".096736"/>
<path d="m89.55 247.1c5.2588-8.1212 9.5138-0.52286 13.097 5.306" fill="none" stroke="#000" stroke-width=".092506"/>
<path d="m94.01 254.23-6.3165-2.8135v-27.357l4.2155 1.8175c2.3185 0.99962 5.3443 2.327 6.7239 2.9497l2.5084 1.1322 1.0527 4.0661c0.57898 2.2363 1.0622 4.0825 1.0738 4.1026 0.0116 0.0201 0.68062-0.21917 1.4866-0.53163 0.80603-0.31248 1.4962-0.57792 1.5337-0.58986 0.0545-0.0173 0.0682 2.2734 0.0682 11.359v11.381l-3.015-1.3515c-1.6582-0.7433-5.8574-2.6176-9.3314-4.165zm-3.9814-7.4853c0.81893-1.1892 2.0047-2.2974 2.8605-2.6732 0.5585-0.2453 1.2247-0.35121 1.7867-0.28405 0.663 0.0793 1.7345 0.60302 2.4038 1.175 1.3677 1.1689 2.6197 2.8144 4.6889 6.1624 0.49296 0.79763 0.92142 1.4414 0.95214 1.4307 0.0799-0.028-1.4985-2.6024-2.5317-4.1291-3.2551-4.8101-5.8911-5.9728-8.5447-3.7689-0.83303 0.69186-2.1552 2.3326-2.0642 2.5617 0.04453 0.1122 0.04487 0.11189 0.44864-0.47446zm1.8546-10.116c0.48064-0.0778 0.87102-0.90134 0.81908-1.7279-0.01349-0.21507-0.04193-0.42098-0.06311-0.45754-0.0212-0.0366-0.31385-0.0729-0.65036-0.0808-0.6546-0.0153-0.65114-0.014-1.6896-0.66032l-0.20464-0.12739v0.33817c0 0.9439 0.47226 2.0737 1.0502 2.5123 0.21642 0.16427 0.49914 0.24217 0.73842 0.20341zm7.8934 3.3121c0.28023-0.0749 0.55224-0.41582 0.65754-0.82417 0.0981-0.38035 0.11383-1.334 0.0226-1.3744-0.0333-0.0148-0.33413-0.039-0.66848-0.054l-0.60789-0.0271-0.60027-0.36227c-0.34558-0.20856-0.6212-0.34542-0.64961-0.32255-0.0773 0.0622 0.0627 1.0451 0.21208 1.4896 0.15904 0.47303 0.50774 1.0292 0.78341 1.2496 0.2652 0.21199 0.58414 0.29649 0.85055 0.22529z" fill="#f9f9f9" stroke="#00000e" stroke-width=".18689"/>
<path d="m87.723 311.84c16.322-12.947 17.171-13.719 19.039-17.318 2.5025-4.8216 3.048-7.9215 3.5815-20.353 0.71255-16.603 0.71759-17.117 0.18681-19.05-0.4238-1.5431-0.5677-1.7642-1.4131-2.1715-0.51771-0.24942-1.5469-0.90555-2.287-1.458-0.74015-0.55251-0.51792-0.4429-0.64752-0.4429-0.12962 0-1.3005-0.56014-1.8935 0.0474-0.76762 0.78644-0.33759 0.26222-0.33759 0.79304 0 0.48146-0.35091 2.5958-0.11012 2.5958 0.35983 0 1.2865 0.4851 1.4859-0.0798 0.0714-0.20235-0.26158-1.9535 0.3521-1.7515 0.54182 0.17837 0.8346 0.1876 0.8346 0.0263 0-0.13663 0.18587 0.82474 0.32955 0.9086 0.43263 0.2525 0.2688 5.4132-0.17311 5.7596-0.50779 0.39799-4.5644-0.0932-6.1756-0.74774-1.0168-0.41309-1.3239-0.70296-1.8337-1.7308l-0.61232-1.2346 0.8365-0.61823c1.5375-1.1363 0.97353-1.8158-0.99472-1.1984-2.6081 0.81807-2.9472 2.4034-1.0736 5.0183 0.54985 0.76738 1.2368 1.8948 1.5266 2.5054 0.2898 0.6106 1.1887 1.7937 1.9975 2.6292s1.4703 1.6681 1.4701 1.8503c0 0.18219-1.0796 4.7164-2.3985 10.076-2.6737 10.865-2.8288 12.215-1.9418 16.899 0.47379 2.5018 0.51969 3.1698 0.20517 2.9863-0.55693-0.32505-1.0092-3.946-1.7596-14.088-0.54589-7.3775-1.0254-8.9708-3.4742-11.544-4.142-4.3529-14.068-5.9491-24.116-3.8781-2.0284 0.41812-3.3687 0.49683-8.4603 0.49683h-6.05l-2.0606-2.0411c-1.3596-1.3467-2.4928-2.7838-3.3309-4.2242-1.1209-1.9264-1.3119-2.4768-1.6245-4.6816-0.41946-2.9591-0.45458-3.7948-0.14596-3.473 0.12363 0.12891 0.36886 1.4 0.54497 2.8248 0.17612 1.4247 0.36647 2.6344 0.42302 2.6882 0.28906 0.27491 2.2923-1.3718 3.4723-2.8544 1.727-2.1698 4.8021-7.8633 6.7058-12.416l1.4959-3.5772-0.1422-4.9341c-0.15723-5.4554-0.46137-7.426-2.0371-13.199-1.411-5.1694-3.0182-9.6399-4.7931-13.332-1.8309-3.809-3.1908-5.8038-5.0501-7.4086-1.7025-1.4694-3.1444-2.1984-5.8078-2.9362-1.0776-0.29848-2.3519-0.75727-2.8317-1.0195-0.63678-0.34802-1.7657-0.54661-4.1798-0.73527-8.367-0.65387-17.322 1.2005-21.499 4.4519-1.9806 1.5417-5.3737 9.9152-6.402 15.799-0.52912 3.0273-0.51666 8.3374 0.02631 11.225 0.22963 1.2212 1.0259 4.3852 1.7696 7.0311l1.352 4.8107 6.09 7.0311c3.8653 4.4626 6.1834 7.3465 6.3456 7.8945 0.69414 2.3455-0.03314 5.2573-2.5418 10.177-0.95147 1.8657-1.772 3.3922-1.8234 3.3922s-1.5302-0.27446-3.2862-0.60992c-8.0161-1.5314-16.848-1.3593-20.769 0.40466-2.1056 0.94739-5.5099 5.7751-6.9639 9.8756-0.59064 1.6657-0.9605 4.5306-3.0088 23.306-1.2844 11.774-2.2952 21.445-2.2462 21.491 0.11819 0.11162 11.369 0.39273 50.955 1.2733 18.104 0.4027 34.503 0.78688 36.443 0.85375l3.5267 0.12159z" fill="#fff" stroke="#303a45" stroke-width=".92592"/>
<path d="m102.28 234.01c-0.54675-2.1144-0.98282-3.8537-0.96903-3.8653 0.023-0.0193 4.668 6.2226 4.8209 6.4782 0.0517 0.0864-0.23733 0.22861-1.2824 0.63092-0.74202 0.28564-1.4 0.5376-1.4622 0.55989-0.10983 0.0394-0.14206-0.0714-1.1072-3.8037z" fill="#f9f9f9" stroke="#00000e" stroke-width=".18689"/>
<path d="m90.911 235.95c-0.38584-0.43227-0.64014-1.0991-0.73481-1.9269l-0.03711-0.3244 0.26748 0.16199c0.88344 0.53497 0.95432 0.56228 1.5009 0.57816 0.28823 8e-3 0.53993 0.0222 0.55934 0.0308 0.05585 0.0247 0.04043 0.79648-0.02106 1.0532-0.08542 0.35679-0.38319 0.74251-0.62578 0.81064-0.27148 0.0762-0.63582-0.0775-0.90902-0.38355z" fill="#f9f9f9" stroke="#00000e" stroke-width=".18689"/>
<path d="m98.805 239.35c-0.40135-0.40325-0.72094-1.1879-0.77682-1.9072l-0.0314-0.40417 0.26769 0.16123c0.89817 0.54103 0.90505 0.54368 1.4585 0.56116 0.29118 9e-3 0.55698 0.0289 0.59067 0.0438 0.10176 0.0451 0.0221 0.91216-0.11579 1.2609-0.12762 0.32265-0.44998 0.6152-0.68987 0.62604-0.19025 9e-3 -0.50805-0.14588-0.703-0.34172z" fill="#f9f9f9" stroke="#00000e" stroke-width=".18689"/>
<path d="m103.38 250.19c-0.0255 5.195-0.0511 5.195-0.0511 5.195l3.0642 0.025v-5.3448z" fill="#fff" stroke="#000" stroke-width=".19038"/>
<path d="m103.27 249.74c-0.0255 6.0322-0.0511 6.0322-0.0511 6.0322l3.0642 0.029v-6.2062z" fill="#fff"/>
</g>
</svg>
