<?xml version="1.0" encoding="UTF-8" standalone="no"?>
<!-- Created with Inkscape (http://www.inkscape.org/) -->

<svg
   xmlns:osb="http://www.openswatchbook.org/uri/2009/osb"
   xmlns:dc="http://purl.org/dc/elements/1.1/"
   xmlns:cc="http://creativecommons.org/ns#"
   xmlns:rdf="http://www.w3.org/1999/02/22-rdf-syntax-ns#"
   xmlns:svg="http://www.w3.org/2000/svg"
   xmlns="http://www.w3.org/2000/svg"
   xmlns:sodipodi="http://sodipodi.sourceforge.net/DTD/sodipodi-0.dtd"
   xmlns:inkscape="http://www.inkscape.org/namespaces/inkscape"
   width="500mm"
   height="541mm"
   viewBox="0 0 500 541"
   version="1.1"
   id="svg8"
   inkscape:version="0.92.4 (5da689c313, 2019-01-14)"
   sodipodi:docname="jto-fav1.svg">
  <defs
     id="defs2">
    <linearGradient
       inkscape:collect="always"
       id="linearGradient827"
       osb:paint="gradient">
      <stop
         style="stop-color:#000000;stop-opacity:1;"
         offset="0"
         id="stop823" />
      <stop
         style="stop-color:#000000;stop-opacity:0;"
         offset="1"
         id="stop825" />
    </linearGradient>
  </defs>
  <sodipodi:namedview
     id="base"
     pagecolor="#ffffff"
     bordercolor="#666666"
     borderopacity="1.0"
     inkscape:pageopacity="0.0"
     inkscape:pageshadow="2"
     inkscape:zoom="0.33224977"
     inkscape:cx="986.05676"
     inkscape:cy="1102.5835"
     inkscape:document-units="mm"
     inkscape:current-layer="layer1"
     showgrid="false"
     inkscape:window-width="1866"
     inkscape:window-height="1016"
     inkscape:window-x="54"
     inkscape:window-y="27"
     inkscape:window-maximized="1" />
  <metadata
     id="metadata5">
    <rdf:RDF>
      <cc:Work
         rdf:about="">
        <dc:format>image/svg+xml</dc:format>
        <dc:type
           rdf:resource="http://purl.org/dc/dcmitype/StillImage" />
        <dc:title></dc:title>
      </cc:Work>
    </rdf:RDF>
  </metadata>
  <g
     inkscape:label="Layer 1"
     inkscape:groupmode="layer"
     id="layer1"
     transform="translate(0,244)">
    <path
       style="fill:#f7f9fb;fill-opacity:0.92156863;stroke:#000000;stroke-width:2.18300009;stroke-linecap:butt;stroke-linejoin:miter;stroke-miterlimit:4;stroke-dasharray:none;stroke-opacity:1"
       d="M 82.901665,-119.69467 375.53593,-229.88889 374.44935,177.30575 82.701843,287.16605 Z"
       id="path10"
       inkscape:connector-curvature="0" />
    <path
       style="fill:#7ec9b5;fill-opacity:1;stroke:#7ec9b5;stroke-width:4.87937021;stroke-linecap:butt;stroke-linejoin:miter;stroke-miterlimit:4;stroke-dasharray:none;stroke-opacity:1"
       d="m 251.8865,-49.033732 77.75886,-25.965781 -203.629,211.471623 C 169.78318,81.690177 283.21959,-36.558813 251.8865,-49.033732 Z"
       id="path2269"
       inkscape:connector-curvature="0"
       sodipodi:nodetypes="cccc" />
    <path
       style="fill:none;fill-opacity:0.57352941;stroke:#7ec9b5;stroke-width:38.94596085;stroke-miterlimit:4;stroke-dasharray:none;stroke-opacity:1"
       id="path2461-9"
       sodipodi:type="arc"
       sodipodi:cx="344.95654"
       sodipodi:cy="512.42645"
       sodipodi:rx="202.18376"
       sodipodi:ry="184.01657"
       sodipodi:start="0"
       sodipodi:end="3.1108661"
       d="M 547.1403,512.42645 A 202.18376,184.01657 0 0 1 348.06263,696.42131 202.18376,184.01657 0 0 1 142.86822,518.07976"
       transform="matrix(-0.38454542,-0.92310607,0.74024248,0.67234,0,0)"
       sodipodi:open="true" />
    <path
       style="fill:#7ec9b5;fill-opacity:1;stroke:none;stroke-width:0.26458332px;stroke-linecap:butt;stroke-linejoin:miter;stroke-opacity:1"
       d="m 159.07475,-175.43794 9.57264,8.728 7.6018,17.17444 -10.98038,-8.728 z"
       id="path2480"
       inkscape:connector-curvature="0"
       sodipodi:nodetypes="ccccc" />
    <path
       style="fill:#f7f9fb;fill-opacity:0.57352941;stroke:#000000;stroke-width:5;stroke-linecap:butt;stroke-linejoin:miter;stroke-miterlimit:4;stroke-dasharray:none;stroke-opacity:1"
       d="M 82.901665,-119.69467 375.53594,-229.88889 374.44934,177.30577 82.701845,287.16606 Z"
       id="path10-5"
       inkscape:connector-curvature="0" />
    <path
       style="fill:none;stroke:#000000;stroke-width:2.227;stroke-linecap:butt;stroke-linejoin:miter;stroke-miterlimit:4;stroke-dasharray:none;stroke-opacity:1"
       d="m 143.04584,-142.41681 -26.89354,10.21386"
       id="path2271-3-6"
       inkscape:connector-curvature="0" />
    <path
       style="fill:none;stroke:#000000;stroke-width:2.22700024;stroke-linecap:butt;stroke-linejoin:miter;stroke-miterlimit:4;stroke-dasharray:none;stroke-opacity:1"
       d="m 374.44935,177.30575 -26.89354,10.21386"
       id="path2271-3-6-5"
       inkscape:connector-curvature="0" />
    <path
       style="fill:none;stroke:#000000;stroke-width:2.22700024;stroke-linecap:butt;stroke-linejoin:miter;stroke-miterlimit:4;stroke-dasharray:none;stroke-opacity:1"
       d="m 374.44935,177.30575 c 4.96953,-1.88737 -17.90542,6.80027 -26.89354,10.21386"
       id="path2271-3-6-3"
       inkscape:connector-curvature="0"
       sodipodi:nodetypes="cc" />
    <path
       style="fill:#7ec9b5;fill-opacity:1;stroke:#7ec9b5;stroke-width:4.87937069;stroke-linecap:butt;stroke-linejoin:miter;stroke-miterlimit:4;stroke-dasharray:none;stroke-opacity:1"
       d="m 304.64254,5.754182 25.00282,-80.753695 -203.629,211.471623 C 178.76665,91.01964 292.63027,-26.785688 304.64254,5.754182 Z"
       id="path2269-6"
       inkscape:connector-curvature="0"
       sodipodi:nodetypes="cccc" />
    <path
       style="fill:none;fill-opacity:0.57352941;stroke:#7ec9b5;stroke-width:37.11880493;stroke-miterlimit:4;stroke-dasharray:none;stroke-opacity:1"
       id="path2461"
       sodipodi:type="arc"
       sodipodi:cx="-355.86371"
       sodipodi:cy="-499.57391"
       sodipodi:rx="190.47478"
       sodipodi:ry="174.86104"
       sodipodi:start="6.0361797"
       sodipodi:end="3.2292135"
       sodipodi:open="true"
       d="m -171.17005,-542.32771 a 190.47478,174.86104 0 0 1 -68.05152,180.99314 190.47478,174.86104 0 0 1 -207.90669,15.24268 190.47478,174.86104 0 0 1 -98.47952,-168.7839"
       transform="matrix(0.35225787,0.93590298,-0.71771681,-0.6963351,0,0)" />
    <path
       style="fill:#7ec9b5;fill-opacity:1;stroke:none;stroke-width:0.15705438px;stroke-linecap:butt;stroke-linejoin:miter;stroke-opacity:1"
       d="m 331.2227,214.55767 -6.06834,-10.32488 -3.69116,-0.58674 7.10211,12.79716 z"
       id="path2480-1"
       inkscape:connector-curvature="0"
       sodipodi:nodetypes="ccccc" />
    <path
       style="fill:#7ec9b5;fill-opacity:1;stroke:none;stroke-width:0.14087977px;stroke-linecap:butt;stroke-linejoin:miter;stroke-opacity:1"
       d="m 325.15436,204.60114 -6.06834,-8.30773 -3.69116,-0.47208 7.10211,10.297 z"
       id="path2480-1-2"
       inkscape:connector-curvature="0"
       sodipodi:nodetypes="ccccc" />
    <path
       style="opacity:0.54000005;fill:#c4e5dd;fill-opacity:1;stroke:none;stroke-width:3.55486298;stroke-miterlimit:4;stroke-dasharray:none;stroke-opacity:1"
       d="m 685.41701,403.05537 c -6.51153,-6.82865 -30.18364,-30.4732 -37.34013,-37.29664 -3.51768,-3.35399 -7.26217,-6.94604 -8.32108,-7.98233 l -1.92528,-1.88418 15.53486,-5.99164 c 8.54417,-3.2954 15.60437,-5.91956 15.68932,-5.83146 0.085,0.0881 4.04713,12.09586 8.80482,26.68391 11.36075,34.83429 11.93229,36.60246 11.85546,36.67725 -0.036,0.0351 -1.97009,-1.93366 -4.29797,-4.37491 z"
       id="path2575"
       inkscape:connector-curvature="0"
       transform="matrix(0.26458333,0,0,0.26458333,0,-244)" />
    <path
       style="opacity:0.54000005;fill:#ffffff;fill-opacity:1;stroke:none;stroke-width:3.55486298;stroke-miterlimit:4;stroke-dasharray:none;stroke-opacity:1"
       d="m 687.90299,405.70744 c -0.80256,-0.80881 -5.73227,-5.86153 -10.95491,-11.22827 -9.15398,-9.40655 -19.97041,-20.12203 -29.81526,-29.53702 -2.58461,-2.47175 -5.17627,-4.96893 -5.75926,-5.54929 -0.58298,-0.58035 -1.57762,-1.55914 -2.21031,-2.17508 -0.63268,-0.61595 -1.15033,-1.17218 -1.15033,-1.23607 0,-0.2723 30.59212,-11.91359 30.9484,-11.77687 0.12079,0.0464 0.32843,0.47291 0.46142,0.9479 0.13299,0.475 0.31279,0.86363 0.39956,0.86363 0.0868,0 0.10904,0.12697 0.0495,0.28217 -0.0596,0.15532 -0.006,0.28216 0.12009,0.28216 0.1257,0 0.17969,0.12685 0.12008,0.28217 -0.0595,0.15519 -0.0172,0.28217 0.0941,0.28217 0.11128,0 0.15361,0.12697 0.0941,0.28216 -0.0596,0.1552 -0.0172,0.28217 0.0941,0.28217 0.11129,0 0.15361,0.12698 0.0941,0.28217 -0.0596,0.15519 -0.0172,0.28217 0.094,0.28217 0.11129,0 0.15361,0.12697 0.0941,0.28216 -0.0595,0.1552 -0.0172,0.28217 0.0941,0.28217 0.11129,0 0.15361,0.12698 0.0941,0.28217 -0.0596,0.15519 -0.0172,0.28216 0.0941,0.28216 0.11128,0 0.15756,0.11666 0.10285,0.25925 -0.0547,0.14258 -0.005,0.35421 0.11155,0.47028 0.11607,0.11607 0.14141,0.21103 0.0563,0.21103 -0.0851,0 -0.0493,0.12698 0.0795,0.28217 0.1288,0.15519 0.17112,0.28217 0.0941,0.28217 -0.0771,0 -0.0544,0.10581 0.0505,0.23514 0.29218,0.36048 17.47428,53.08398 17.82408,54.69341 0.0337,0.15519 0.0784,0.30333 0.0992,0.3292 0.0208,0.0259 0.0498,0.11051 0.0643,0.18811 0.0145,0.0776 0.09,0.24105 0.16767,0.36322 0.0777,0.12218 0.0541,0.27603 -0.0525,0.3419 -0.10657,0.0659 -0.8504,-0.542 -1.65296,-1.35081 z"
       id="path2577"
       inkscape:connector-curvature="0"
       transform="matrix(0.26458333,0,0,0.26458333,0,-244)" />
    <path
       style="fill:#ffffff;stroke:#000000;stroke-width:5;stroke-linecap:butt;stroke-linejoin:miter;stroke-miterlimit:4;stroke-dasharray:none;stroke-opacity:1"
       d="M 229.98732,-175.26351 116.1523,-132.20295"
       id="path2271"
       inkscape:connector-curvature="0"
       sodipodi:nodetypes="cc" />
  </g>
</svg>
